<svg width="18" height="18" viewBox="0 0 18 18" fill="none" xmlns="http://www.w3.org/2000/svg">
<path d="M0 9C-1.76116e-08 10.1819 0.232792 11.3522 0.685084 12.4442C1.13738 13.5361 1.80031 14.5282 2.63604 15.364C3.47177 16.1997 4.46392 16.8626 5.55585 17.3149C6.64778 17.7672 7.8181 18 9 18C10.1819 18 11.3522 17.7672 12.4442 17.3149C13.5361 16.8626 14.5282 16.1997 15.364 15.364C16.1997 14.5282 16.8626 13.5361 17.3149 12.4442C17.7672 11.3522 18 10.1819 18 9C18 6.61305 17.0518 4.32387 15.364 2.63604C13.6761 0.948212 11.3869 0 9 0C6.61305 0 4.32387 0.948212 2.63604 2.63604C0.948211 4.32387 3.55683e-08 6.61305 0 9Z" fill="currentColor"/>
<path d="M8 13C8 13.55 8.45 14 9 14C9.55 14 10 13.55 10 13V9C10 8.45 9.55 8 9 8C8.45 8 8 8.45 8 9V13Z" fill="white"/>
<path d="M8 6H10V4H8V6Z" fill="white"/>
</svg>
