<?xml version="1.0" encoding="utf-8"?>
<!-- Generator: Adobe Illustrator 25.2.1, SVG Export Plug-In . SVG Version: 6.00 Build 0)  -->
<svg version="1.1" id="Layer_1" xmlns="http://www.w3.org/2000/svg" xmlns:xlink="http://www.w3.org/1999/xlink" x="0px" y="0px"
	 viewBox="0 0 1920 1080" style="enable-background:new 0 0 1920 1080;" xml:space="preserve">
<style type="text/css">
	.st0{fill:#868686;}
	.st1{fill-rule:evenodd;clip-rule:evenodd;fill:#CDAC65;}
	.st2{fill-rule:evenodd;clip-rule:evenodd;fill:#868686;}
</style>
<g>
	<g>
		<g>
			<path class="st0" d="M413.22,567.88h-11.17V701h22.34V590.53c110.83,5.83,199.19,97.8,199.19,210.06
				c0,112.28-88.36,204.26-199.19,210.09v-66.36c-3.7,0.27-7.41,0.42-11.17,0.42s-7.47-0.15-11.17-0.42v88.97h11.17
				c128.31,0,232.7-104.39,232.7-232.7C645.92,672.3,541.53,567.88,413.22,567.88z"/>
		</g>
		
			<ellipse transform="matrix(0.7071 -0.7071 0.7071 0.7071 -445.0782 526.6797)" class="st1" cx="413.22" cy="800.6" rx="99.6" ry="99.6"/>
		<path class="st0" d="M413.22,922.53c-67.24,0-121.94-54.7-121.94-121.94s54.7-121.94,121.94-121.94
			c67.24,0,121.94,54.7,121.94,121.94S480.46,922.53,413.22,922.53z M413.22,701c-54.92,0-99.6,44.68-99.6,99.6
			s44.68,99.6,99.6,99.6s99.6-44.68,99.6-99.6S468.14,701,413.22,701z"/>
	</g>
	<g>
		<path class="st0" d="M1583.07,921.35c-20.35,0-37.9-4.63-52.15-13.77c-14.19-9.06-25.77-22.73-34.4-40.63
			c-4.63-10.47-8.25-21.65-10.76-33.23c-2.54-11.89-3.83-24.33-3.83-36.97c0-33.37,8.23-60.98,24.46-82.06
			c17.7-23.12,43.39-34.84,76.34-34.84h44.07v22.58h-44.07c-25.94,0-45.05,8.52-58.45,26.04c-13.13,17.04-19.78,40.02-19.78,68.28
			c0,11.22,1.12,22.04,3.31,32.17c2.16,10.03,5.25,19.62,9.18,28.52c6.77,13.93,15.56,24.42,26.12,31.16
			c10.56,6.76,24,10.18,39.96,10.18h43.73v22.58H1583.07z"/>
		<path class="st0" d="M781.73,921.35v-22.58h51.45c15.95,0,29.4-3.42,39.96-10.18c10.56-6.74,19.34-17.21,26.09-31.1
			c3.95-8.94,7.05-18.56,9.21-28.58c2.2-10.12,3.31-20.94,3.31-32.16c0-28.27-6.66-51.24-19.79-68.29
			c-13.39-17.52-32.5-26.03-58.44-26.03h-74.13v218.92h-22.58v-241.5h96.71c32.95,0,58.64,11.72,76.34,34.83
			c16.24,21.08,24.47,48.69,24.47,82.06c0,12.64-1.29,25.09-3.83,36.98c-2.52,11.6-6.14,22.8-10.79,33.28
			c-8.62,17.87-20.18,31.52-34.37,40.58c-14.25,9.13-31.8,13.77-52.16,13.77H781.73z"/>
		<polygon class="st0" points="1130.71,921.74 1104.19,849.04 1017.17,849.18 1025.31,826.75 1096.09,826.61 1049.65,698.48 
			968.8,921.6 944.76,921.74 1032.49,679.6 1066.61,679.45 1154.55,921.74 		"/>
		<rect x="1417.83" y="679.45" class="st2" width="22.59" height="242.29"/>
		<path class="st0" d="M1349.82,921.35V871.3c0-18.48-5.54-31.63-16.46-39.07c-10.35-7-24.09-10.55-40.83-10.55h-61.88V799.1h61.88
			c16.74,0,30.48-3.55,40.83-10.55c10.92-7.44,16.46-20.58,16.46-39.07c0-20.02-7.53-33.93-22.39-41.34
			c-7.72-3.8-17.94-5.72-30.39-5.72h-88.57v218.92h-22.58v-241.5h111.14c15.98,0,29.59,2.72,40.45,8.08
			c22.51,11.22,34.9,33.08,34.9,61.56c0,32.88-14.34,49.57-26.37,57.78c-0.5,0.34-1.03,0.65-1.56,0.96l-3.51,2.15l2.57,1.6
			l0.97,0.59c0.59,0.35,1.07,0.64,1.53,0.95c0.31,0.19,0.53,0.35,0.78,0.54c11.67,8.27,25.58,24.91,25.58,57.23v50.05H1349.82z"/>
	</g>
</g>
</svg>
