<svg width="381" height="472" viewBox="0 0 381 472" fill="none" xmlns="http://www.w3.org/2000/svg">
<path d="M239.725 468.185L250.924 468.025L249.023 334.699L226.665 335.018L228.243 445.687C117.131 441.431 27.3261 350.553 25.7225 238.124C24.1183 125.665 111.295 32.2626 222.24 24.8395L223.188 91.3027C226.894 90.9799 230.572 90.7674 234.341 90.7136C238.111 90.6598 241.823 90.7569 245.546 90.9838L244.275 1.85292L233.076 2.01266C104.559 3.84583 1.49139 109.917 3.32471 238.444C5.15746 366.93 111.209 470.018 239.725 468.185Z" fill="#868686"/>
<path d="M164.873 165.555C126.47 205.069 127.371 268.233 166.885 306.636C206.399 345.038 269.563 344.137 307.966 304.623C346.368 265.109 345.467 201.946 305.953 163.543C266.439 125.14 203.275 126.041 164.873 165.555Z" fill="#CDAC65"/>
<path d="M226.977 356.856C230.661 357.133 234.373 357.27 238.143 357.216C241.913 357.163 245.65 356.929 249.334 356.537C311.367 349.991 359.475 296.91 358.568 233.336C357.608 165.983 302.012 111.981 234.659 112.941C167.315 113.902 113.303 169.468 114.263 236.821C115.17 300.405 164.742 352.093 226.977 356.856ZM140.738 206.84C140.967 206.047 141.206 205.254 141.465 204.49C142.222 202.169 143.039 199.877 143.957 197.644C144.576 196.145 145.225 194.675 145.904 193.205C145.904 193.175 145.904 193.175 145.904 193.175C146.467 192.007 147.031 190.849 147.615 189.711C147.935 189.006 148.295 188.331 148.686 187.655C149.006 187.011 149.368 186.395 149.719 185.81C149.924 185.407 150.168 185.014 150.403 184.64C150.793 183.935 151.203 183.259 151.653 182.582C152.366 181.382 153.11 180.221 153.914 179.08C154.148 178.706 154.394 178.373 154.629 178.039C155.227 177.181 155.825 176.352 156.483 175.523C157.17 174.603 157.857 173.683 158.574 172.783C159.556 171.518 160.609 170.323 161.652 169.118C162.705 167.913 163.809 166.747 164.923 165.601C166.036 164.455 167.17 163.319 168.345 162.232C168.947 161.674 169.519 161.115 170.122 160.627C170.724 160.068 171.327 159.539 171.93 159.051C172.532 158.522 173.135 158.003 173.768 157.504C174.757 156.7 175.756 155.926 176.776 155.211C179.813 152.888 183.013 150.772 186.326 148.834C187.476 148.178 188.617 147.522 189.798 146.895C191.218 146.144 192.638 145.424 194.118 144.733L194.147 144.702C195.598 144.042 197.079 143.38 198.561 142.779L198.59 142.749C200.072 142.148 201.584 141.576 203.096 141.044C204.161 140.659 205.216 140.314 206.271 139.969C207.337 139.654 208.422 139.328 209.478 139.013C209.906 138.887 210.325 138.791 210.723 138.665C210.843 138.634 210.962 138.602 211.092 138.57C211.879 138.379 212.666 138.188 213.483 137.956C213.972 137.859 214.451 137.762 214.969 137.635C216.574 137.282 218.209 136.948 219.856 136.685C219.976 136.683 220.125 136.651 220.285 136.619C222.071 136.353 223.867 136.078 225.685 135.902C226.684 135.797 227.722 135.693 228.751 135.618C229.78 135.543 230.82 135.498 231.849 135.424C232.879 135.409 233.918 135.364 234.978 135.349L236.258 135.331C237.758 135.319 239.249 135.388 240.73 135.457C240.871 135.465 241.021 135.473 241.161 135.471C241.651 135.494 242.161 135.517 242.652 135.54C242.862 135.567 243.112 135.563 243.323 135.59C244.875 135.718 246.426 135.846 247.949 136.014C247.979 136.014 247.999 136.013 248.029 136.023C248.139 136.031 248.249 136.04 248.36 136.058C248.39 136.068 248.43 136.077 248.46 136.077C248.55 136.076 248.67 136.104 248.79 136.102C248.821 136.132 248.881 136.131 248.911 136.13C248.971 136.13 249.061 136.158 249.121 136.157C249.362 136.184 249.612 136.24 249.853 136.267C251.316 136.456 252.779 136.655 254.213 136.935C256.228 137.306 258.215 137.758 260.192 138.25C260.523 138.335 260.895 138.42 261.226 138.505C261.778 138.617 262.32 138.789 262.842 138.942C264.83 139.494 266.819 140.075 268.739 140.748C269.533 141.037 270.327 141.306 271.121 141.594C273.262 142.384 275.405 143.263 277.489 144.214C278.254 144.573 278.989 144.922 279.754 145.281C279.996 145.398 280.248 145.514 280.49 145.631C281.013 145.894 281.567 146.166 282.081 146.458C282.233 146.546 282.414 146.634 282.606 146.751C282.908 146.897 283.19 147.043 283.462 147.199C283.764 147.344 284.046 147.49 284.319 147.677C284.349 147.676 284.35 147.706 284.38 147.706C284.5 147.764 284.591 147.823 284.712 147.881C285.881 148.504 287.041 149.188 288.181 149.902C288.645 150.195 289.099 150.469 289.534 150.763C289.937 150.997 290.331 151.271 290.734 151.505C291.138 151.77 291.532 152.044 291.936 152.308C292.764 152.877 293.592 153.415 294.39 154.004C296.017 155.171 297.584 156.358 299.163 157.646C300.276 158.54 301.319 159.445 302.362 160.341L302.575 160.548C303.679 161.532 304.793 162.556 305.878 163.601C306.466 164.142 307.024 164.714 307.572 165.277C308.161 165.848 308.719 166.45 309.237 167.013C310.354 168.187 311.401 169.353 312.419 170.588C312.947 171.191 313.466 171.793 313.935 172.427C314.953 173.662 315.951 174.948 316.88 176.245C317.379 176.908 317.838 177.542 318.278 178.205C318.747 178.869 319.207 179.532 319.616 180.196C320.086 180.86 320.516 181.524 320.925 182.218C321.365 182.882 321.794 183.546 322.204 184.24L322.205 184.27C322.644 184.934 323.045 185.658 323.395 186.353C323.609 186.68 323.764 187.018 323.959 187.345C323.989 187.375 323.99 187.435 324.021 187.464C324.585 188.486 325.15 189.548 325.676 190.601C325.706 190.661 325.737 190.72 325.768 190.78C326.108 191.445 326.427 192.111 326.737 192.806C327.077 193.531 327.428 194.256 327.739 195.012C328.049 195.738 328.37 196.493 328.681 197.249C328.866 197.646 329.022 198.064 329.188 198.492C329.468 199.158 329.727 199.824 329.977 200.521L329.978 200.551C330.01 200.67 330.071 200.759 330.103 200.879C330.227 201.177 330.321 201.486 330.415 201.785C330.988 203.327 331.49 204.87 331.942 206.453C332.099 206.941 332.256 207.419 332.363 207.907C332.646 208.844 332.91 209.79 333.133 210.727C333.451 211.972 333.749 213.208 333.977 214.455C334.167 215.182 334.298 215.941 334.439 216.699C334.871 218.943 335.203 221.218 335.476 223.495C335.578 224.343 335.649 225.162 335.721 225.981C335.79 226.62 335.829 227.23 335.868 227.84C335.939 228.659 335.981 229.448 336.022 230.268C336.068 231.397 336.114 232.516 336.131 233.646C336.145 234.676 336.13 235.687 336.114 236.687C336.127 237.627 336.08 238.548 336.033 239.458C336.036 239.668 336.01 239.889 336.013 240.099C335.988 240.499 335.964 240.889 335.94 241.32C335.917 241.81 335.894 242.291 335.841 242.781C335.765 243.753 335.689 244.734 335.583 245.735C335.529 246.196 335.476 246.647 335.423 247.138C335.424 247.228 335.396 247.348 335.398 247.468C335.368 247.499 335.369 247.559 335.369 247.589C335.37 247.649 335.341 247.739 335.342 247.799C335.29 248.32 335.207 248.831 335.124 249.352C335.015 250.084 334.905 250.816 334.785 251.517C334.676 252.249 334.536 252.981 334.387 253.713C334.304 254.234 334.191 254.746 334.078 255.238C333.938 255.94 333.799 256.672 333.619 257.375C333.421 258.228 333.213 259.081 332.985 259.904C332.758 260.817 332.521 261.741 332.263 262.624C331.949 263.689 331.624 264.764 331.279 265.799C331.136 266.291 330.962 266.773 330.809 267.266C330.81 267.296 330.78 267.326 330.781 267.356C330.636 267.758 330.522 268.15 330.338 268.553C329.924 269.689 329.52 270.814 329.076 271.921C328.631 273.027 328.197 274.094 327.722 275.161C327.46 275.774 327.189 276.388 326.898 276.972C326.578 277.707 326.218 278.442 325.859 279.177C325.509 279.883 325.149 280.588 324.729 281.294C324.437 281.878 324.166 282.462 323.813 283.007C323.814 283.037 323.784 283.037 323.784 283.067C323.336 283.894 322.868 284.721 322.389 285.518C321.999 286.223 321.588 286.869 321.138 287.546C321.021 287.757 320.874 288.009 320.717 288.222C320.239 289.019 319.71 289.816 319.171 290.614C318.544 291.533 317.888 292.493 317.231 293.382C317.054 293.625 316.907 293.847 316.721 294.089C315.916 295.201 315.082 296.303 314.207 297.386C313.225 298.62 312.202 299.814 311.129 301.02C311.07 301.111 310.981 301.202 310.893 301.293C310.44 301.82 309.997 302.306 309.515 302.833C308.973 303.421 308.441 303.978 307.869 304.527C307.327 305.114 306.755 305.673 306.193 306.221L306.193 306.251C305.68 306.748 305.207 307.205 304.693 307.672C304.604 307.734 304.545 307.824 304.456 307.886C303.282 309.033 302.087 310.08 300.882 311.097C300.427 311.503 299.953 311.87 299.468 312.247C298.865 312.746 298.262 313.235 297.658 313.703C297.421 313.887 297.203 314.04 296.966 314.233C296.392 314.671 295.818 315.1 295.224 315.538C294.898 315.783 294.591 316.037 294.264 316.252C293.938 316.497 293.601 316.721 293.274 316.936C292.819 317.273 292.373 317.589 291.917 317.866C291.046 318.488 290.174 319.051 289.262 319.604C288.598 320.043 287.874 320.473 287.179 320.853C287.061 320.945 286.972 321.006 286.852 321.068C286.822 321.069 286.823 321.099 286.793 321.099C286.248 321.467 285.672 321.755 285.106 322.063C284.413 322.503 283.718 322.873 283.023 323.253C282.298 323.633 281.574 324.004 280.849 324.354C280.273 324.662 279.667 324.951 279.071 325.229C278.008 325.735 276.955 326.2 275.871 326.675C274.847 327.12 273.754 327.556 272.699 327.971C272.64 328.001 272.61 328.002 272.55 328.033C271.645 328.376 270.77 328.728 269.824 329.042C268.8 329.426 267.735 329.772 266.679 330.117C265.803 330.399 264.887 330.662 263.98 330.915C263.164 331.167 262.317 331.399 261.46 331.621C261.4 331.622 261.371 331.653 261.311 331.653C260.673 331.843 259.975 331.973 259.337 332.142C258.849 332.269 258.341 332.396 257.822 332.493C256.397 332.814 254.941 333.114 253.484 333.345C252.965 333.443 252.457 333.54 251.938 333.607C251.878 333.608 251.788 333.639 251.728 333.64C251.698 333.641 251.638 333.642 251.609 333.672C251.489 333.674 251.369 333.705 251.279 333.707C250.82 333.773 250.341 333.84 249.882 333.907C248.884 334.041 247.905 334.145 246.936 334.249C245.848 334.384 244.719 334.46 243.62 334.536C242.711 334.609 241.792 334.682 240.852 334.696C239.853 334.74 238.843 334.784 237.813 334.799C236.683 334.815 235.563 334.801 234.433 334.787C233.612 334.769 232.822 334.75 232.001 334.702C231.391 334.68 230.78 334.659 230.14 334.608C229.319 334.56 228.498 334.512 227.647 334.434C225.364 334.226 223.08 333.949 220.814 333.591C220.053 333.482 219.291 333.373 218.558 333.193C217.305 333.001 216.062 332.739 214.807 332.457C213.865 332.26 212.911 332.024 211.967 331.767C211.476 331.684 210.994 331.541 210.502 331.388C208.916 330.981 207.359 330.523 205.791 329.995C205.49 329.909 205.179 329.824 204.877 329.708C204.757 329.68 204.666 329.621 204.546 329.593L204.516 329.593C204.395 329.565 204.274 329.507 204.144 329.479C203.903 329.392 203.681 329.305 203.47 329.218C203.138 329.103 202.797 328.988 202.465 328.872C202.033 328.729 201.611 328.585 201.208 328.4C200.444 328.111 199.68 327.812 198.945 327.523C198.181 327.233 197.446 326.904 196.712 326.584C196.008 326.294 195.333 325.994 194.659 325.673C194.598 325.644 194.538 325.615 194.477 325.586C193.4 325.081 192.332 324.547 191.295 324.021C191.264 323.992 191.204 323.993 191.174 323.963C190.841 323.788 190.499 323.643 190.166 323.427C189.462 323.107 188.726 322.718 188.05 322.297L188.02 322.298C187.314 321.908 186.638 321.497 185.962 321.077C185.257 320.687 184.581 320.277 183.904 319.826C183.229 319.436 182.552 318.995 181.876 318.545C181.2 318.125 180.553 317.684 179.876 317.203C178.554 316.312 177.23 315.351 175.976 314.369C175.329 313.918 174.712 313.417 174.094 312.905C172.83 311.923 171.636 310.9 170.43 309.827C169.843 309.316 169.225 308.775 168.647 308.213C168.059 307.671 167.471 307.129 166.923 306.567L166.923 306.537C165.808 305.483 164.793 304.437 163.777 303.362L163.564 303.155C162.64 302.138 161.715 301.111 160.78 300.034C160.129 299.283 159.478 298.502 158.856 297.721C158.327 297.089 157.838 296.456 157.369 295.822C156.901 295.279 156.472 294.645 156.034 294.081C156.034 294.051 156.004 294.052 156.003 294.022C155.729 293.695 155.473 293.329 155.228 292.963C154.667 292.18 154.106 291.398 153.614 290.615C153.461 290.407 153.308 290.16 153.175 289.952C152.705 289.288 152.306 288.654 151.866 287.96C151.365 287.177 150.874 286.364 150.402 285.551C150.401 285.521 150.371 285.521 150.371 285.491C150.003 284.946 149.715 284.37 149.407 283.805C148.967 283.111 148.597 282.416 148.217 281.721C147.847 280.997 147.466 280.272 147.116 279.547C146.808 278.971 146.519 278.365 146.24 277.759C146.179 277.64 146.117 277.491 146.055 277.362L146.054 277.332C145.674 276.607 145.333 275.882 145.053 275.126C144.898 274.828 144.774 274.52 144.64 274.222L144.639 274.192C144.453 273.764 144.257 273.347 144.101 272.919C144.008 272.68 143.914 272.402 143.82 272.163C143.54 271.467 143.251 270.801 143.001 270.105C142.783 269.528 142.554 268.951 142.366 268.353C142.085 267.597 141.824 266.841 141.573 266.055C141.478 265.726 141.384 265.417 141.289 265.089C141.008 264.302 140.776 263.486 140.555 262.669C140.303 261.852 140.071 261.005 139.849 260.159C139.659 259.461 139.498 258.733 139.328 258.036C139.266 257.857 139.233 257.677 139.201 257.488C139.169 257.398 139.168 257.338 139.137 257.248C139.074 257.009 139.01 256.76 138.977 256.521C138.819 255.973 138.721 255.434 138.623 254.885C138.622 254.825 138.591 254.736 138.59 254.676C138.559 254.586 138.557 254.466 138.526 254.377C138.298 253.13 138.061 251.893 137.863 250.646C137.862 250.586 137.831 250.496 137.83 250.436C137.829 250.406 137.829 250.346 137.798 250.317C137.796 250.197 137.765 250.077 137.763 249.987C137.697 249.528 137.63 249.049 137.563 248.59C137.464 247.951 137.395 247.312 137.326 246.673C137.224 245.855 137.152 245.005 137.081 244.186C136.974 243.058 136.899 241.939 136.822 240.78C136.784 240.23 136.776 239.65 136.738 239.081C136.696 238.231 136.683 237.381 136.671 236.521C136.549 227.942 137.53 219.597 139.446 211.589C139.843 209.994 140.271 208.407 140.738 206.84Z" fill="#868686"/>
</svg>
