<svg width="893" height="420" viewBox="0 0 893 420" fill="none" xmlns="http://www.w3.org/2000/svg">
<path d="M506.71 290.73C499.6 290.73 493.82 284.94 493.82 277.83C493.82 274.43 495.16 271.19 497.59 268.72C500 266.31 503.32 264.93 506.71 264.93C510.15 264.93 513.39 266.27 515.83 268.71C518.27 271.19 519.61 274.42 519.61 277.83C519.61 281.27 518.27 284.51 515.83 286.94C513.43 289.39 510.19 290.73 506.71 290.73Z" fill="#868686"/>
<path d="M470.69 290.73C463.58 290.73 457.8 284.94 457.8 277.83C457.8 274.43 459.14 271.19 461.57 268.72C463.98 266.31 467.3 264.93 470.69 264.93C474.13 264.93 477.37 266.27 479.81 268.71C482.25 271.19 483.59 274.42 483.59 277.82C483.59 281.26 482.25 284.5 479.81 286.94C477.41 289.39 474.17 290.73 470.69 290.73Z" fill="#868686"/>
<path d="M739.16 0.539734H717.24V242.24H739.16V0.539734Z" fill="#868686"/>
<path d="M582.78 242.93V221.01H610.05C634.32 221.01 654.07 201.27 654.07 177V66.9998H675.99V177C675.99 213.36 646.41 242.93 610.05 242.93H582.78Z" fill="#868686"/>
<path d="M431.61 1.00977V22.9598H66.5901C46.4601 22.9598 28.8901 36.5398 23.9401 56.0498H1.54004L1.66003 55.3898C7.24003 23.8998 34.5601 1.01978 66.5901 1.01978H431.61V1.00977Z" fill="#868686"/>
<path d="M431.61 176.98C431.61 178.25 431.58 179.55 431.49 180.78C431.46 181.66 431.4 182.5 431.31 183.35C431.28 183.56 431.28 183.77 431.25 183.98C431.13 185.01 431.01 186 430.86 187C430.68 188.3 430.44 189.6 430.13 190.89C429.95 191.74 429.74 192.58 429.53 193.43C429.26 194.49 428.96 195.51 428.65 196.57V196.6C426.69 202.76 423.88 208.55 420.35 213.81C419.78 214.69 419.14 215.56 418.51 216.41V216.44C406.44 232.47 387.27 242.88 365.71 242.88C365.71 242.88 365.53 242.88 365.32 242.91C365.2 242.94 365.11 242.91 364.99 242.91C364.72 242.94 364.48 242.94 364.48 242.94H0.600098V221.02H365.81C389.02 221.02 408.35 202.88 409.76 179.69C409.82 178.81 409.85 177.88 409.85 176.97C409.85 175.79 409.79 174.62 409.7 173.41C407.89 150.74 388.6 132.96 365.81 132.96H66.5901C34.5602 132.96 7.2701 110.11 1.6601 78.6198L1.5401 77.9598H23.9401C28.9201 97.4298 46.4901 111.05 66.5901 111.05H365.8C366.89 111.05 367.97 111.08 369.06 111.14C370.06 111.17 371.02 111.26 371.99 111.35C372.29 111.38 372.59 111.41 372.87 111.44C373.65 111.53 374.41 111.62 375.16 111.74C375.25 111.74 375.37 111.77 375.46 111.77C375.79 111.83 376.12 111.86 376.46 111.92C376.55 111.95 376.61 111.95 376.7 111.98C376.73 111.95 376.73 111.98 376.76 111.98L377.27 112.04H377.57L377.66 112.13L378.11 112.22C378.62 112.31 379.11 112.4 379.59 112.52C380.47 112.7 381.31 112.88 382.16 113.12C382.73 113.27 383.34 113.42 383.94 113.6C384.12 113.63 384.27 113.69 384.45 113.75C386.5 114.35 388.49 115.08 390.46 115.86C391.18 116.16 391.91 116.46 392.63 116.8C393.2 117.04 393.75 117.31 394.32 117.58C394.95 117.88 395.59 118.18 396.19 118.52C396.82 118.85 397.43 119.18 398.03 119.52C398.63 119.85 399.24 120.21 399.84 120.58C417.92 131.42 429.73 150.1 431.48 171.36L431.54 174.2L431.61 176.98Z" fill="#868686"/>
<path d="M541.52 66.9998V176.97C541.52 213.35 511.97 242.93 475.59 242.93C461.28 242.93 447.42 238.28 436.04 229.71C440.45 223.79 444.16 217.33 447 210.42C454.91 217.21 465.11 221.02 475.59 221.02C499.86 221.02 519.6 201.28 519.6 176.98V66.9998H541.52Z" fill="#868686"/>
<path d="M780.42 242.93V221.22H804.18C840.71 221.22 870.44 191.5 870.44 154.97C870.44 118.44 840.72 88.7198 804.18 88.7198H780.42V66.9998H804.18C852.68 66.9998 892.14 106.46 892.14 154.96C892.14 203.46 852.68 242.93 804.18 242.93H780.42Z" fill="#868686"/>
<path d="M46.1348 357.712C42.3588 365.584 40.4708 372.72 40.4708 379.12C40.4708 385.072 41.9748 389.936 44.9828 393.712C48.0548 397.552 52.5988 399.472 58.6148 399.472H68.8868C73.3028 399.472 76.7908 398.928 79.3508 397.84C81.9108 396.752 83.7348 395.056 84.8228 392.752C85.9748 390.448 86.5508 387.376 86.5508 383.536V352.912H92.5028V383.536C92.5028 398.64 84.6308 406.192 68.8868 406.192H58.6148C53.4948 406.192 49.1108 404.912 45.4628 402.352C41.8148 399.856 39.0628 396.528 37.2068 392.368C35.4148 388.272 34.5188 383.856 34.5188 379.12C34.5188 371.632 36.6948 363.6 41.0468 355.024L46.1348 357.712ZM61.6868 352.624H70.2308V361.168H61.6868V352.624ZM121.143 382C115.319 382 111.191 380.464 108.759 377.392C106.327 374.32 105.111 369.744 105.111 363.664L105.015 319.696H110.967L111.063 363.664C111.063 366.864 111.319 369.264 111.831 370.864C112.407 372.464 113.399 373.616 114.807 374.32C116.215 374.96 118.327 375.28 121.143 375.28H122.391L122.871 378.736L122.391 382H121.143ZM167.283 325.072L136.851 338.512L153.843 355.408C157.171 358.736 158.835 362.672 158.835 367.216C158.835 369.84 158.195 372.272 156.915 374.512C155.635 376.752 153.779 378.576 151.347 379.984C148.915 381.328 146.035 382 142.707 382H121.395V375.28H142.707C146.035 375.28 148.627 374.576 150.483 373.168C152.339 371.696 153.267 369.872 153.267 367.696C153.267 365.072 152.051 362.544 149.619 360.112L130.419 341.104L132.243 333.232L164.787 318.928L167.283 325.072ZM133.395 322.768L159.891 311.152L161.235 314.512L132.915 326.896L133.395 322.768ZM200.342 349.264L204.374 358.096C204.374 358.096 204.374 358.128 204.374 358.192C204.438 358.192 204.47 358.192 204.47 358.192C207.222 364.464 209.654 368.88 211.766 371.44C213.942 374 216.502 375.28 219.446 375.28H220.982L221.462 378.832L220.982 382H219.446C216.694 382 214.23 381.296 212.054 379.888C209.878 378.48 207.83 376.432 205.91 373.744L205.046 375.184C201.91 379.728 196.854 382 189.878 382H184.982C181.526 382 178.454 381.488 175.766 380.464C173.142 379.44 170.966 378.256 169.238 376.912L172.502 371.344C176.214 373.968 180.374 375.28 184.982 375.28H189.878C194.87 375.28 198.294 373.968 200.15 371.344C200.854 370.384 201.206 369.264 201.206 367.984C201.206 366.448 200.47 364.112 198.998 360.976C192.47 346.832 189.078 339.472 188.822 338.896L194.294 336.016L200.342 349.264ZM244.692 352.912V367.216C244.692 372.592 247.604 375.28 253.428 375.28H256.5L256.98 378.736L256.5 382H253.428C251.38 382 249.236 381.488 246.996 380.464C244.756 379.44 242.9 377.872 241.428 375.76C240.02 377.808 238.132 379.376 235.764 380.464C233.396 381.488 230.836 382 228.084 382H220.02V375.28H228.084C235.188 375.28 238.74 372.336 238.74 366.448V352.912H244.692ZM228.084 333.904H236.628V342.448H228.084V333.904ZM280.223 352.912V367.216C280.223 372.592 283.135 375.28 288.959 375.28H292.031L292.511 378.736L292.031 382H288.959C286.911 382 284.767 381.488 282.527 380.464C280.287 379.44 278.431 377.872 276.959 375.76C275.551 377.808 273.663 379.376 271.295 380.464C268.927 381.488 266.367 382 263.615 382H255.551V375.28H263.615C270.719 375.28 274.271 372.336 274.271 366.448V352.912H280.223ZM263.615 333.904H272.159V342.448H263.615V333.904ZM336.587 322.288L304.427 336.4L323.531 355.408C325.195 357.072 326.443 358.928 327.275 360.976C328.107 362.96 328.523 365.008 328.523 367.12C328.523 369.744 327.883 372.208 326.603 374.512C325.323 376.752 323.467 378.576 321.035 379.984C318.603 381.328 315.723 382 312.395 382H291.082V375.28H312.395C315.723 375.28 318.315 374.576 320.171 373.168C322.027 371.696 322.955 369.872 322.955 367.696C322.955 365.072 321.739 362.544 319.307 360.112L298.091 338.992L299.915 331.12L334.091 316.144L336.587 322.288ZM431.433 382C427.849 382 424.841 380.88 422.409 378.64V383.536C422.409 398.64 414.537 406.192 398.793 406.192H388.521C383.401 406.192 379.017 404.912 375.369 402.352C371.721 399.856 368.969 396.528 367.113 392.368C365.321 388.272 364.425 383.856 364.425 379.12C364.425 371.632 366.601 363.6 370.953 355.024L376.041 357.712C372.265 365.584 370.377 372.72 370.377 379.12C370.377 385.072 371.881 389.936 374.889 393.712C377.961 397.552 382.505 399.472 388.521 399.472H398.793C403.209 399.472 406.697 398.928 409.257 397.84C411.817 396.752 413.641 395.056 414.729 392.752C415.881 390.448 416.457 387.376 416.457 383.536V352.912H422.409V366.64C422.409 369.904 423.273 372.176 425.001 373.456C426.793 374.672 428.937 375.28 431.433 375.28H432.777L433.257 378.736L432.777 382H431.433ZM391.593 352.624H400.137V361.168H391.593V352.624ZM458.393 352.912V367.216C458.393 372.592 461.305 375.28 467.129 375.28H472.025L472.409 378.736L472.025 382H467.129C465.145 382 463.001 381.488 460.697 380.464C458.457 379.44 456.601 377.904 455.129 375.856C453.721 377.904 451.833 379.44 449.465 380.464C447.097 381.488 444.569 382 441.881 382H431.801V375.28H441.881C448.921 375.28 452.441 372.336 452.441 366.448V352.912H458.393ZM434.393 395.824H442.937V404.368H434.393V395.824ZM450.329 395.824H458.873V404.368H450.329V395.824ZM471.082 375.28H473.771C475.371 375.28 476.715 374.864 477.803 374.032C478.955 373.2 479.723 372.048 480.107 370.576L483.179 359.536C484.523 354.736 486.603 350.992 489.419 348.304C492.235 345.552 495.627 344.176 499.595 344.176C502.795 344.176 505.611 345.104 508.043 346.96C510.475 348.816 512.363 351.312 513.707 354.448C515.051 357.584 515.723 361.008 515.723 364.72C515.723 369.2 515.083 372.912 513.803 375.856C512.523 378.736 510.891 380.816 508.907 382.096C506.923 383.44 504.779 384.112 502.475 384.112C500.107 384.112 497.675 383.632 495.179 382.672C492.747 381.712 488.843 379.856 483.467 377.104C482.251 378.64 480.779 379.856 479.051 380.752C477.387 381.584 475.627 382 473.771 382H471.082V375.28ZM486.155 371.152C491.211 373.712 494.731 375.408 496.715 376.24C498.699 377.008 500.619 377.392 502.475 377.392C504.779 377.392 506.571 376.496 507.851 374.704C509.131 372.848 509.771 369.52 509.771 364.72C509.771 360.496 508.875 357.136 507.083 354.64C505.355 352.144 502.859 350.896 499.595 350.896C497.035 350.896 494.859 351.76 493.067 353.488C491.275 355.216 489.899 357.808 488.939 361.264L486.155 371.152ZM545.268 382C539.444 382 535.316 380.464 532.884 377.392C530.452 374.32 529.236 369.744 529.236 363.664L529.14 319.696H535.092L535.188 363.664C535.188 366.864 535.444 369.264 535.956 370.864C536.532 372.464 537.524 373.616 538.932 374.32C540.34 374.96 542.452 375.28 545.268 375.28H546.516L546.996 378.736L546.516 382H545.268ZM545.52 375.28H558.48C562.192 375.28 564.816 374.576 566.352 373.168C567.952 371.696 568.752 369.808 568.752 367.504C568.752 365.712 568.432 363.056 567.792 359.536C567.216 355.952 566.544 352.592 565.776 349.456L571.536 347.92C572.304 351.248 573.008 354.8 573.648 358.576C574.352 362.352 574.704 365.328 574.704 367.504C574.704 369.936 574.128 372.272 572.976 374.512C571.824 376.688 570.032 378.48 567.6 379.888C565.168 381.296 562.128 382 558.48 382H545.52V375.28ZM550.224 327.76H558.768V336.304H550.224V327.76ZM566.16 327.76H574.704V336.304H566.16V327.76ZM644.173 364.144C645.197 368.176 647.085 371.056 649.837 372.784C652.653 374.448 655.917 375.28 659.629 375.28H661.549L661.933 378.64L661.549 382H659.629C655.533 382 651.597 381.008 647.821 379.024C644.045 376.976 641.229 373.648 639.373 369.04L639.085 369.616C637.549 372.368 635.533 374.48 633.037 375.952C630.541 377.424 627.853 378.16 624.973 378.16C622.029 378.16 619.181 377.36 616.429 375.76C613.869 374.288 611.853 372.24 610.381 369.616C608.909 366.928 608.173 364.112 608.173 361.168C608.173 358.096 608.941 355.28 610.477 352.72C611.437 351.056 612.557 349.616 613.837 348.4C615.181 347.184 617.229 345.872 619.981 344.464C622.733 342.992 626.733 341.168 631.981 338.992L630.733 333.424L636.493 331.888L644.173 364.144ZM615.661 356.176C614.637 357.84 614.125 359.6 614.125 361.456C614.125 363.184 614.573 364.816 615.469 366.352C616.429 367.888 617.709 369.136 619.309 370.096C620.909 371.12 622.701 371.632 624.685 371.632C626.541 371.632 628.301 371.216 629.965 370.384C631.693 369.488 633.133 368.24 634.285 366.64C634.989 365.616 635.501 364.592 635.821 363.568C636.205 362.544 636.397 361.328 636.397 359.92C636.397 358.896 636.301 357.712 636.109 356.368L634.285 348.496L633.517 345.328C627.629 347.44 623.437 349.328 620.941 350.992C618.445 352.656 616.685 354.384 615.661 356.176ZM660.551 375.28H670.919C674.119 375.28 676.423 374.576 677.831 373.168C679.303 371.696 680.039 369.808 680.039 367.504C680.039 365.712 679.719 363.056 679.079 359.536C678.503 355.952 677.831 352.592 677.063 349.456L682.823 347.92C683.591 351.248 684.295 354.8 684.935 358.576C685.639 362.352 685.991 365.328 685.991 367.504C685.991 369.936 685.447 372.272 684.359 374.512C683.271 376.688 681.575 378.48 679.271 379.888C677.031 381.296 674.247 382 670.919 382H660.551V375.28ZM671.591 327.664H680.135V336.208H671.591V327.664ZM715.612 382C709.788 382 705.66 380.464 703.228 377.392C700.796 374.32 699.58 369.744 699.58 363.664L699.484 319.696H705.436L705.532 363.664C705.532 366.864 705.788 369.264 706.3 370.864C706.876 372.464 707.868 373.616 709.276 374.32C710.684 374.96 712.796 375.28 715.612 375.28H716.86L717.34 378.736L716.86 382H715.612ZM715.864 375.28H718.552C720.152 375.28 721.496 374.864 722.584 374.032C723.736 373.2 724.504 372.048 724.888 370.576L727.96 359.536C729.304 354.736 731.384 350.992 734.2 348.304C737.016 345.552 740.408 344.176 744.376 344.176C747.576 344.176 750.392 345.104 752.824 346.96C755.256 348.816 757.144 351.312 758.488 354.448C759.832 357.584 760.504 361.008 760.504 364.72C760.504 369.2 759.864 372.912 758.584 375.856C757.304 378.736 755.672 380.816 753.688 382.096C751.704 383.44 749.56 384.112 747.256 384.112C744.888 384.112 742.456 383.632 739.96 382.672C737.528 381.712 733.624 379.856 728.248 377.104C727.032 378.64 725.56 379.856 723.832 380.752C722.168 381.584 720.408 382 718.552 382H715.864V375.28ZM730.936 371.152C735.992 373.712 739.512 375.408 741.496 376.24C743.48 377.008 745.4 377.392 747.256 377.392C749.56 377.392 751.352 376.496 752.632 374.704C753.912 372.848 754.552 369.52 754.552 364.72C754.552 360.496 753.656 357.136 751.864 354.64C750.136 352.144 747.64 350.896 744.376 350.896C741.816 350.896 739.64 351.76 737.848 353.488C736.056 355.216 734.68 357.808 733.72 361.264L730.936 371.152ZM790.049 382C784.225 382 780.097 380.464 777.665 377.392C775.233 374.32 774.017 369.744 774.017 363.664L773.921 319.696H779.873L779.969 363.664C779.969 366.864 780.225 369.264 780.737 370.864C781.313 372.464 782.305 373.616 783.713 374.32C785.121 374.96 787.233 375.28 790.049 375.28H791.297L791.777 378.736L791.297 382H790.049ZM790.301 375.28H796.445C799.837 375.28 802.333 374.576 803.933 373.168C805.533 371.76 806.333 369.52 806.333 366.448V352.72H812.285V367.216C812.285 372.464 815.101 375.152 820.733 375.28C824.061 375.216 826.493 374.512 828.029 373.168C829.565 371.76 830.333 369.52 830.333 366.448V352.72H836.285V367.216C836.285 372.464 839.133 375.152 844.829 375.28C847.901 375.216 850.109 374.48 851.453 373.072C852.861 371.6 853.565 369.744 853.565 367.504C853.565 365.712 853.245 363.056 852.605 359.536C852.029 355.952 851.357 352.592 850.589 349.456L856.445 347.92C857.213 351.12 857.917 354.64 858.557 358.48C859.197 362.32 859.517 365.328 859.517 367.504C859.517 369.872 858.973 372.176 857.885 374.416C856.861 376.656 855.229 378.48 852.989 379.888C850.813 381.296 848.093 382 844.829 382C842.781 382 840.669 381.488 838.493 380.464C836.317 379.44 834.525 377.872 833.117 375.76C830.237 379.92 826.109 382 820.733 382C818.685 382 816.541 381.456 814.301 380.368C812.061 379.28 810.301 377.744 809.021 375.76C807.613 377.808 805.821 379.376 803.645 380.464C801.469 381.488 799.069 382 796.445 382H790.301V375.28Z" fill="#868686"/>
</svg>
