<svg xmlns="http://www.w3.org/2000/svg" width="20" height="20" viewBox="0 0 20 20" fill="none">
<path d="M5.00781 6.67187C5.0377 4.60557 5.19098 3.43409 5.97688 2.64818C6.95319 1.67188 8.52457 1.67188 11.6672 1.67188C14.8099 1.67188 16.3813 1.67188 17.3576 2.64818C18.3339 3.6245 18.3339 5.19584 18.3339 8.33854V11.6719C18.3339 14.8145 18.3339 16.386 17.3576 17.3622C16.3813 18.3385 14.8099 18.3385 11.6672 18.3385H10.0005" stroke="currentColor" />
<path opacity="0.5" d="M1.66406 12.0885C1.66406 10.9181 1.66406 10.333 1.94495 9.91262C2.06655 9.73062 2.2228 9.57438 2.40478 9.45279C2.82515 9.17188 3.41035 9.17188 4.58073 9.17188C5.75111 9.17188 6.3363 9.17188 6.75668 9.45279C6.93866 9.57438 7.09491 9.73062 7.21651 9.91262C7.4974 10.333 7.4974 10.9181 7.4974 12.0885V15.4219C7.4974 16.5923 7.4974 17.1775 7.21651 17.5978C7.09491 17.7798 6.93866 17.936 6.75668 18.0576C6.3363 18.3385 5.75111 18.3385 4.58073 18.3385C3.41035 18.3385 2.82515 18.3385 2.40478 18.0576C2.2228 17.936 2.06655 17.7798 1.94495 17.5978C1.66406 17.1775 1.66406 16.5923 1.66406 15.4219V12.0885Z" stroke="currentColor"/>
<path opacity="0.5" d="M14.1667 15.8281H10" stroke="currentColor" />
</svg>