<svg width="24" height="24" viewBox="0 0 24 24" fill="none" xmlns="http://www.w3.org/2000/svg">
<g clip-path="url(#clip0_12_17)">
<path d="M1.2 8.44448C1.2 5.09227 1.2 3.41617 2.14897 2.37477C3.09794 1.33337 4.62529 1.33337 7.68 1.33337H16.32C19.3747 1.33337 20.902 1.33337 21.851 2.37477C22.8 3.41617 22.8 5.09227 22.8 8.44448V9.62967C22.8 12.9818 22.8 14.6579 21.851 15.6994C20.902 16.7408 19.3747 16.7408 16.32 16.7408H7.68C4.62529 16.7408 3.09794 16.7408 2.14897 15.6994C1.2 14.6579 1.2 12.9818 1.2 9.62967V8.44448Z" stroke="currentcolor"/>
<path d="M12.003 20.2963V17.3334M12.003 20.2963L18.483 22.6667M12.003 20.2963L5.52305 22.6667" stroke="currentcolor" stroke-linecap="round"/>
<path d="M6.81915 12.2248L10.0517 7.61434L13.739 10.7929L16.9025 6.3125" stroke="currentcolor" stroke-linecap="round" stroke-linejoin="round"/>
</g>
</svg>
