<svg width="20" height="20" viewBox="0 0 20 20" fill="none" xmlns="http://www.w3.org/2000/svg">
<path opacity="0.5" d="M16.5855 1.92787C16.4514 1.58654 15.9701 1.58654 15.836 1.92787L15.4773 2.8406C15.4364 2.94481 15.3543 3.0273 15.2504 3.0684L14.341 3.42838C14.0009 3.56299 14.0009 4.04604 14.341 4.18066L15.2504 4.54064C15.3543 4.58174 15.4364 4.66423 15.4773 4.76844L15.836 5.68117C15.9701 6.02249 16.4514 6.02249 16.5855 5.68118L16.9442 4.76844C16.9851 4.66423 17.0673 4.58174 17.1711 4.54064L18.0805 4.18066C18.4206 4.04604 18.4206 3.56299 18.0805 3.42838L17.1711 3.0684C17.0673 3.0273 16.9851 2.94481 16.9442 2.8406L16.5855 1.92787Z" stroke="currentColor" stroke-width="0.5"/>
<path opacity="0.5" d="M13.358 6.77161C13.2238 6.4303 12.7425 6.4303 12.6084 6.77161L12.4776 7.1044C12.4367 7.20861 12.3545 7.2911 12.2507 7.3322L11.9191 7.46345C11.579 7.59806 11.579 8.08111 11.9191 8.21573L12.2507 8.34697C12.3545 8.38805 12.4367 8.47055 12.4776 8.5748L12.6084 8.90755C12.7425 9.24889 13.2238 9.24889 13.358 8.90755L13.4887 8.5748C13.5296 8.47055 13.6118 8.38805 13.7156 8.34697L14.0472 8.21573C14.3873 8.08111 14.3873 7.59806 14.0472 7.46345L13.7156 7.3322C13.6118 7.2911 13.5296 7.20861 13.4887 7.1044L13.358 6.77161Z" stroke="currentColor" stroke-width="0.5"/>
<path d="M16.8837 10C16.8837 13.8017 13.8017 16.8837 10 16.8837V18C14.4183 18 18 14.4183 18 10H16.8837ZM10 16.8837C6.19823 16.8837 3.11628 13.8017 3.11628 10H2C2 14.4183 5.58172 18 10 18V16.8837ZM3.11628 10C3.11628 6.19823 6.19823 3.11628 10 3.11628V2C5.58172 2 2 5.58172 2 10H3.11628ZM12.6047 11.6744C10.2414 11.6744 8.32558 9.75859 8.32558 7.39535H7.2093C7.2093 10.3751 9.62486 12.7907 12.6047 12.7907V11.6744ZM16.27 9.60484C15.5198 10.8464 14.1587 11.6744 12.6047 11.6744V12.7907C14.5655 12.7907 16.2815 11.7443 17.2255 10.1821L16.27 9.60484ZM8.32558 7.39535C8.32558 5.84135 9.15364 4.48022 10.3952 3.72999L9.8179 2.77459C8.25569 3.71855 7.2093 5.43449 7.2093 7.39535H8.32558ZM10 3.11628C9.93414 3.11628 9.85689 3.08657 9.80086 3.02823C9.75338 2.97881 9.74236 2.93205 9.73976 2.91314C9.73663 2.88995 9.73819 2.82275 9.8179 2.77459L10.3952 3.72999C10.7696 3.50374 10.89 3.08947 10.846 2.76374C10.8003 2.42512 10.5333 2 10 2V3.11628ZM17.2255 10.1821C17.1772 10.2618 17.11 10.2634 17.0869 10.2602C17.068 10.2576 17.0212 10.2466 16.9718 10.1991C16.9134 10.1431 16.8837 10.0659 16.8837 10H18C18 9.46672 17.5748 9.1997 17.2362 9.15401C16.9105 9.10995 16.4962 9.23036 16.27 9.60484L17.2255 10.1821Z" fill="currentColor"/>
</svg>
