<svg width="20" height="20" viewBox="0 0 20 20" fill="none" xmlns="http://www.w3.org/2000/svg">
<path d="M1.66406 10.027C1.66406 14.3155 4.88667 17.8494 9.0364 18.3271C9.64873 18.3976 10.2422 18.1365 10.6781 17.6996C11.2226 17.1536 11.2226 16.2685 10.6781 15.7225C10.2422 15.2855 9.8869 14.6336 10.2156 14.1109C11.5295 12.0212 18.3307 16.8202 18.3307 10.027C18.3307 5.41257 14.5997 1.67188 9.9974 1.67188C5.39502 1.67188 1.66406 5.41257 1.66406 10.027Z" stroke="currentColor"/>
<path opacity="0.5" d="M14.5859 10.8281C15.2763 10.8281 15.8359 10.2685 15.8359 9.57812C15.8359 8.88777 15.2763 8.32812 14.5859 8.32812C13.8956 8.32812 13.3359 8.88777 13.3359 9.57812C13.3359 10.2685 13.8956 10.8281 14.5859 10.8281Z" stroke="currentColor"/>
<path opacity="0.5" d="M5.41406 10.8281C6.10442 10.8281 6.66406 10.2685 6.66406 9.57812C6.66406 8.88777 6.10442 8.32812 5.41406 8.32812C4.72371 8.32812 4.16406 8.88777 4.16406 9.57812C4.16406 10.2685 4.72371 10.8281 5.41406 10.8281Z" stroke="currentColor"/>
<path opacity="0.5" d="M9.16406 5.82812C9.16406 6.51847 8.6044 7.07812 7.91406 7.07812C7.2237 7.07812 6.66406 6.51847 6.66406 5.82812C6.66406 5.13777 7.2237 4.57812 7.91406 4.57812C8.6044 4.57812 9.16406 5.13777 9.16406 5.82812Z" stroke="currentColor"/>
<path opacity="0.5" d="M13.3359 5.82812C13.3359 6.51848 12.7763 7.07812 12.0859 7.07812C11.3956 7.07812 10.8359 6.51848 10.8359 5.82812C10.8359 5.13777 11.3956 4.57812 12.0859 4.57812C12.7763 4.57812 13.3359 5.13777 13.3359 5.82812Z" stroke="currentColor"/>
</svg>
