<svg width="26" height="26" viewBox="0 0 26 26" fill="none" xmlns="http://www.w3.org/2000/svg">
<path d="M1 13C1 7.34315 1 4.51472 2.75736 2.75736C4.51472 1 7.34315 1 13 1C18.6568 1 21.4853 1 23.2425 2.75736C25 4.51472 25 7.34315 25 13C25 18.6568 25 21.4853 23.2425 23.2425C21.4853 25 18.6568 25 13 25C7.34315 25 4.51472 25 2.75736 23.2425C1 21.4853 1 18.6568 1 13Z" stroke="currentcolor" stroke-width="1.2"/>
<path d="M10.3053 12.343C10.7087 13.1352 11.1736 13.8954 11.7772 14.5887C12.3827 15.2863 13.1358 15.9211 14.1106 16.4634C14.1828 16.5017 14.2512 16.5017 14.3127 16.4751C14.4055 16.4368 14.5003 16.3528 14.5931 16.2518C14.6653 16.1731 14.7552 16.0476 14.849 15.9105C15.224 15.3735 15.688 14.7068 16.3433 15.0407C16.358 15.0481 16.3687 15.0566 16.3834 15.063L18.5693 16.4315C18.5761 16.4358 18.5839 16.4432 18.5898 16.4475C18.8779 16.6633 18.9971 16.9961 19 17.3736C19 17.7575 18.8701 18.1892 18.6796 18.5539C18.4276 19.0356 18.0565 19.3546 17.6287 19.5652C17.2214 19.7693 16.7682 19.8788 16.3326 19.949C15.6489 20.0586 15.0082 19.9884 14.3528 19.7693C13.7121 19.5535 13.0664 19.1972 12.3613 18.723L12.3095 18.6868C11.9862 18.4667 11.6365 18.2317 11.2937 17.9542C10.0396 16.9228 8.76108 15.433 7.92794 13.7934C7.22959 12.4174 6.84867 10.9319 7.05671 9.51662C7.17196 8.74038 7.47768 8.03432 8.01096 7.56858C8.47588 7.16026 9.10195 6.93696 9.91263 7.01565C10.0054 7.02309 10.0884 7.08157 10.1324 7.16877L11.534 9.74843C11.7391 10.0377 11.7645 10.3248 11.6522 10.6119C11.5594 10.8469 11.3718 11.0638 11.1159 11.2658C11.0407 11.336 10.9509 11.4072 10.8561 11.4817C10.5426 11.7294 10.1861 12.0155 10.3082 12.3515L10.3053 12.343Z" fill="currentcolor"/>
</svg>
