<svg xmlns="http://www.w3.org/2000/svg" width="24" height="24" viewBox="0 0 24 24" fill="none">
<g>
<path d="M9.99563 20.7737C9.12523 20.5763 8.2893 20.2496 7.51562 19.8047" stroke="currentColor" stroke-width="2" stroke-linecap="round" stroke-linejoin="round"/>
<path d="M14 3.21875C15.9882 3.67282 17.7632 4.78844 19.0347 6.38296C20.3061 7.97747 20.9984 9.9564 20.9984 11.9958C20.9984 14.0351 20.3061 16.014 19.0347 17.6085C17.7632 19.2031 15.9882 20.3187 14 20.7728" stroke="currentColor" stroke-width="2" stroke-linecap="round" stroke-linejoin="round"/>
<path d="M4.57856 17.092C4.03307 16.2995 3.61876 15.4243 3.35156 14.5" stroke="currentColor" stroke-width="2" stroke-linecap="round" stroke-linejoin="round"/>
<path d="M3.125 10.4956C3.285 9.54563 3.593 8.64562 4.025 7.82062L4.194 7.51562" stroke="currentColor" stroke-width="2" stroke-linecap="round" stroke-linejoin="round"/>
<path d="M6.90625 4.57475C7.8419 3.93065 8.89157 3.47047 9.99925 3.21875" stroke="currentColor" stroke-width="2" stroke-linecap="round" stroke-linejoin="round"/>
<path d="M12 8V12L15 15" stroke="currentColor" stroke-width="2" stroke-linecap="round" stroke-linejoin="round"/>
</g>

</svg>