<svg width="24" height="24" viewBox="0 0 24 24" fill="none" xmlns="http://www.w3.org/2000/svg">
<path fill-rule="evenodd" clip-rule="evenodd" d="M4.28739 3C3.58246 3 3.0018 3.61292 3.0018 4.35702L3.00009 16.1196C3.00009 16.7235 3.858 16.7235 3.858 16.1196L3.85886 4.35702C3.85886 4.09873 4.0427 3.90468 4.28739 3.90468H16.2862C16.5309 3.90468 16.7147 4.09873 16.7147 4.35702V12.4991C16.7061 13.1107 17.5803 13.1107 17.5718 12.4991V4.35702C17.5718 3.61292 16.9911 3 16.2862 3H4.28739ZM6.85856 6.61871C6.7449 6.61871 6.63591 6.66637 6.55554 6.75119C6.47518 6.83603 6.43003 6.95107 6.43003 7.07105C6.43003 7.19101 6.47518 7.30607 6.55554 7.39089C6.63591 7.47573 6.7449 7.52339 6.85856 7.52339C6.97221 7.52339 7.08121 7.47573 7.16157 7.39089C7.24194 7.30607 7.28709 7.19101 7.28709 7.07105C7.28709 6.95107 7.24194 6.83603 7.16157 6.75119C7.08121 6.66637 6.97221 6.61871 6.85856 6.61871ZM8.52982 6.61962C7.97145 6.66032 8.0113 7.53966 8.57096 7.52428H13.715C14.2742 7.51162 14.2742 6.63227 13.715 6.61962H8.57096C8.55725 6.61893 8.54352 6.61893 8.52982 6.61962ZM6.85856 9.33274C6.7449 9.33274 6.63591 9.38039 6.55554 9.46522C6.47518 9.55005 6.43003 9.66511 6.43003 9.78507C6.43003 9.90504 6.47518 10.0201 6.55554 10.1049C6.63591 10.1898 6.7449 10.2374 6.85856 10.2374C6.97221 10.2374 7.08121 10.1898 7.16157 10.1049C7.24194 10.0201 7.28709 9.90504 7.28709 9.78507C7.28709 9.66511 7.24194 9.55005 7.16157 9.46522C7.08121 9.38039 6.97221 9.33274 6.85856 9.33274ZM13.7622 9.33274C13.7463 9.33274 13.7304 9.33274 13.715 9.33454H8.57096C8.55725 9.33386 8.54352 9.33386 8.52982 9.33454C8.00444 9.4033 8.0413 10.2202 8.57096 10.2356H13.715C14.3034 10.2903 14.3527 9.34586 13.7622 9.33274ZM8.57096 12.0458C8.01173 12.0585 8.01173 12.9379 8.57096 12.9506H13.715C14.2987 12.9641 14.2987 12.0323 13.715 12.0458H8.57096ZM6.85856 12.0468C6.7449 12.0468 6.63591 12.0944 6.55554 12.1793C6.47518 12.264 6.43003 12.3791 6.43003 12.4991C6.43003 12.6191 6.47518 12.7342 6.55554 12.8189C6.63591 12.9038 6.7449 12.9514 6.85856 12.9514C6.97221 12.9514 7.08121 12.9038 7.16157 12.8189C7.24194 12.7342 7.28709 12.6191 7.28709 12.4991C7.28709 12.3791 7.24194 12.264 7.16157 12.1793C7.08121 12.0944 6.97221 12.0468 6.85856 12.0468ZM6.85856 14.7607C6.7449 14.7607 6.63591 14.8085 6.55554 14.8933C6.47518 14.9781 6.43003 15.0931 6.43003 15.2132C6.43003 15.3331 6.47518 15.4481 6.55554 15.533C6.63591 15.6179 6.7449 15.6655 6.85856 15.6655C6.97221 15.6655 7.08121 15.6179 7.16157 15.533C7.24194 15.4481 7.28709 15.3331 7.28709 15.2132C7.28709 15.0931 7.24194 14.9781 7.16157 14.8933C7.08121 14.8085 6.97221 14.7607 6.85856 14.7607ZM8.57096 14.7607C7.9873 14.7472 7.9873 15.6791 8.57096 15.6655H12.8571C13.4408 15.6791 13.4408 14.7472 12.8571 14.7607H8.57096ZM6.85856 17.4748C6.7449 17.4748 6.63591 17.5225 6.55554 17.6073C6.47518 17.6921 6.43003 17.8072 6.43003 17.9271C6.43003 18.0471 6.47518 18.1622 6.55554 18.2471C6.63591 18.3318 6.7449 18.3795 6.85856 18.3795C6.97221 18.3795 7.08121 18.3318 7.16157 18.2471C7.24194 18.1622 7.28709 18.0471 7.28709 17.9271C7.28709 17.8072 7.24194 17.6921 7.16157 17.6073C7.08121 17.5225 6.97221 17.4748 6.85856 17.4748ZM8.52982 17.4748C7.95816 17.5037 7.99887 18.4094 8.57096 18.3804H12C12.5721 18.3804 12.5721 17.4748 12 17.4748H8.57096C8.55725 17.4742 8.54352 17.4742 8.52982 17.4748ZM3.42433 17.919C3.36769 17.9196 3.31172 17.9321 3.25966 17.9556C3.2076 17.9792 3.16048 18.0134 3.12102 18.0563C3.08157 18.0992 3.05057 18.1499 3.02981 18.2056C3.00905 18.2612 2.99895 18.3206 3.00009 18.3804L3.0018 20.6412C3.0018 21.3852 3.58246 21.9982 4.28739 21.9982H12.858C13.4373 22.0073 13.4373 21.0845 12.858 21.0935H4.28739C4.0427 21.0935 3.85886 20.8995 3.85886 20.6412L3.858 18.3804C3.85915 18.3198 3.84875 18.2595 3.82741 18.2033C3.80606 18.147 3.77422 18.0958 3.73376 18.0527C3.69331 18.0097 3.64507 17.9757 3.59191 17.9527C3.53875 17.9298 3.48176 17.9182 3.42433 17.919ZM17.1441 13.8552C15.019 13.8552 13.2882 15.6831 13.2882 17.9263C13.2882 20.1694 15.0195 22 17.1441 22C19.2692 22 21 20.1694 21 17.9263C21 15.6831 19.2687 13.8552 17.1441 13.8552ZM17.1441 14.7607C17.5382 14.7598 17.9285 14.8411 18.2928 14.9998C18.657 15.1586 18.988 15.3917 19.2666 15.6858C19.5453 15.9799 19.7661 16.3293 19.9165 16.7137C20.0669 17.0983 20.1438 17.5103 20.1429 17.9263C20.1439 18.3424 20.067 18.7546 19.9167 19.1392C19.7663 19.5239 19.5455 19.8735 19.2669 20.1678C18.9883 20.4622 18.6573 20.6955 18.293 20.8545C17.9288 21.0136 17.5383 21.0951 17.1441 21.0944C16.7499 21.0951 16.3594 21.0136 15.9952 20.8545C15.6309 20.6955 15.2999 20.4622 15.0213 20.1678C14.7427 19.8735 14.5219 19.5239 14.3715 19.1392C14.2212 18.7546 14.1443 18.3424 14.1453 17.9263C14.1444 17.5103 14.2213 17.0983 14.3717 16.7137C14.5221 16.3293 14.7429 15.9799 15.0216 15.6858C15.3002 15.3917 15.6312 15.1586 15.9954 14.9998C16.3597 14.8411 16.75 14.7598 17.1441 14.7607ZM18.4974 16.5136C18.3864 16.5174 18.2812 16.5666 18.2039 16.6506L16.6886 18.2497L16.0843 17.6092C16.0446 17.5665 15.9973 17.5325 15.9451 17.5093C15.8929 17.4861 15.8368 17.474 15.7801 17.4738C15.7235 17.4734 15.6673 17.485 15.6149 17.5077C15.5625 17.5305 15.5149 17.564 15.4748 17.6062C15.4347 17.6486 15.4029 17.6987 15.3813 17.754C15.3597 17.8093 15.3486 17.8685 15.3488 17.9284C15.349 17.9882 15.3604 18.0473 15.3823 18.1026C15.4043 18.1577 15.4363 18.2077 15.4767 18.2497L16.3852 19.2081C16.425 19.2503 16.4722 19.2836 16.5243 19.3064C16.5763 19.3291 16.632 19.3408 16.6884 19.3408C16.7447 19.3408 16.8004 19.3291 16.8525 19.3064C16.9045 19.2836 16.9517 19.2503 16.9915 19.2081L18.8115 17.2911C18.874 17.2276 18.9167 17.1454 18.934 17.0555C18.9512 16.9657 18.9423 16.8725 18.9082 16.7882C18.8741 16.7038 18.8166 16.6325 18.7433 16.5834C18.6699 16.5344 18.5842 16.51 18.4974 16.5136Z" fill="currentcolor"/>
</svg>
