<svg width="1342" height="501" viewBox="0 0 1342 501" fill="none" xmlns="http://www.w3.org/2000/svg">
<path d="M1200.13 468.185L1211.32 468.025L1209.42 334.699L1187.06 335.018L1188.64 445.687C1077.53 441.431 987.726 350.553 986.122 238.124C984.518 125.665 1071.69 32.2626 1182.64 24.8395L1183.59 91.3027C1187.29 90.9799 1190.97 90.7674 1194.74 90.7136C1198.51 90.6598 1202.22 90.7569 1205.95 90.9838L1204.67 1.85292L1193.48 2.01266C1064.96 3.84583 961.891 109.917 963.725 238.444C965.557 366.93 1071.61 470.018 1200.13 468.185Z" fill="#868686"/>
<path d="M1125.27 165.555C1086.87 205.069 1087.77 268.233 1127.29 306.636C1166.8 345.038 1229.96 344.137 1268.37 304.623C1306.77 265.109 1305.87 201.946 1266.35 163.543C1226.84 125.14 1163.68 126.041 1125.27 165.555Z" fill="#CDAC65"/>
<path d="M1187.38 356.856C1191.06 357.133 1194.77 357.27 1198.54 357.216C1202.31 357.163 1206.05 356.929 1209.73 356.537C1271.77 349.991 1319.88 296.91 1318.97 233.336C1318.01 165.983 1262.41 111.981 1195.06 112.941C1127.72 113.902 1073.7 169.468 1074.66 236.821C1075.57 300.405 1125.14 352.093 1187.38 356.856ZM1101.14 206.84C1101.37 206.047 1101.61 205.254 1101.86 204.49C1102.62 202.169 1103.44 199.877 1104.36 197.644C1104.98 196.145 1105.63 194.675 1106.3 193.205C1106.3 193.175 1106.3 193.175 1106.3 193.175C1106.87 192.007 1107.43 190.849 1108.01 189.711C1108.33 189.006 1108.7 188.331 1109.09 187.655C1109.41 187.011 1109.77 186.395 1110.12 185.81C1110.32 185.407 1110.57 185.014 1110.8 184.64C1111.19 183.935 1111.6 183.259 1112.05 182.582C1112.77 181.382 1113.51 180.221 1114.31 179.08C1114.55 178.706 1114.79 178.373 1115.03 178.039C1115.63 177.181 1116.22 176.352 1116.88 175.523C1117.57 174.603 1118.26 173.683 1118.97 172.783C1119.96 171.518 1121.01 170.323 1122.05 169.118C1123.11 167.913 1124.21 166.747 1125.32 165.601C1126.44 164.455 1127.57 163.319 1128.74 162.232C1129.35 161.674 1129.92 161.115 1130.52 160.627C1131.12 160.068 1131.73 159.539 1132.33 159.051C1132.93 158.522 1133.53 158.003 1134.17 157.504C1135.16 156.7 1136.16 155.926 1137.18 155.211C1140.21 152.888 1143.41 150.772 1146.73 148.834C1147.88 148.178 1149.02 147.522 1150.2 146.895C1151.62 146.144 1153.04 145.424 1154.52 144.733L1154.55 144.702C1156 144.042 1157.48 143.38 1158.96 142.779L1158.99 142.749C1160.47 142.148 1161.98 141.576 1163.5 141.044C1164.56 140.659 1165.62 140.314 1166.67 139.969C1167.74 139.654 1168.82 139.328 1169.88 139.013C1170.31 138.887 1170.72 138.791 1171.12 138.665C1171.24 138.634 1171.36 138.602 1171.49 138.57C1172.28 138.379 1173.07 138.188 1173.88 137.956C1174.37 137.859 1174.85 137.762 1175.37 137.635C1176.97 137.282 1178.61 136.948 1180.26 136.685C1180.38 136.683 1180.53 136.651 1180.68 136.619C1182.47 136.353 1184.27 136.078 1186.09 135.902C1187.08 135.797 1188.12 135.693 1189.15 135.618C1190.18 135.543 1191.22 135.498 1192.25 135.424C1193.28 135.409 1194.32 135.364 1195.38 135.349L1196.66 135.331C1198.16 135.319 1199.65 135.388 1201.13 135.457C1201.27 135.465 1201.42 135.473 1201.56 135.471C1202.05 135.494 1202.56 135.517 1203.05 135.54C1203.26 135.567 1203.51 135.563 1203.72 135.59C1205.27 135.718 1206.83 135.846 1208.35 136.014C1208.38 136.014 1208.4 136.013 1208.43 136.023C1208.54 136.031 1208.65 136.04 1208.76 136.058C1208.79 136.068 1208.83 136.077 1208.86 136.077C1208.95 136.076 1209.07 136.104 1209.19 136.102C1209.22 136.132 1209.28 136.131 1209.31 136.13C1209.37 136.13 1209.46 136.158 1209.52 136.157C1209.76 136.184 1210.01 136.24 1210.25 136.267C1211.72 136.456 1213.18 136.655 1214.61 136.935C1216.63 137.306 1218.61 137.758 1220.59 138.25C1220.92 138.335 1221.29 138.42 1221.63 138.505C1222.18 138.617 1222.72 138.789 1223.24 138.942C1225.23 139.494 1227.22 140.075 1229.14 140.748C1229.93 141.037 1230.73 141.306 1231.52 141.594C1233.66 142.384 1235.81 143.263 1237.89 144.214C1238.65 144.573 1239.39 144.922 1240.15 145.281C1240.4 145.398 1240.65 145.514 1240.89 145.631C1241.41 145.894 1241.97 146.166 1242.48 146.458C1242.63 146.546 1242.81 146.634 1243.01 146.751C1243.31 146.897 1243.59 147.043 1243.86 147.199C1244.16 147.344 1244.45 147.49 1244.72 147.677C1244.75 147.676 1244.75 147.706 1244.78 147.706C1244.9 147.764 1244.99 147.823 1245.11 147.881C1246.28 148.504 1247.44 149.188 1248.58 149.902C1249.05 150.195 1249.5 150.469 1249.93 150.763C1250.34 150.997 1250.73 151.271 1251.13 151.505C1251.54 151.77 1251.93 152.044 1252.34 152.308C1253.16 152.877 1253.99 153.415 1254.79 154.004C1256.42 155.171 1257.98 156.358 1259.56 157.646C1260.68 158.54 1261.72 159.445 1262.76 160.341L1262.97 160.548C1264.08 161.532 1265.19 162.556 1266.28 163.601C1266.87 164.142 1267.42 164.714 1267.97 165.277C1268.56 165.848 1269.12 166.45 1269.64 167.013C1270.75 168.187 1271.8 169.353 1272.82 170.588C1273.35 171.191 1273.87 171.793 1274.33 172.427C1275.35 173.662 1276.35 174.948 1277.28 176.245C1277.78 176.908 1278.24 177.542 1278.68 178.205C1279.15 178.869 1279.61 179.532 1280.02 180.196C1280.49 180.86 1280.92 181.524 1281.33 182.218C1281.76 182.882 1282.19 183.546 1282.6 184.24L1282.6 184.27C1283.04 184.934 1283.44 185.658 1283.79 186.353C1284.01 186.68 1284.16 187.018 1284.36 187.345C1284.39 187.375 1284.39 187.435 1284.42 187.464C1284.99 188.486 1285.55 189.548 1286.08 190.601C1286.11 190.661 1286.14 190.72 1286.17 190.78C1286.51 191.445 1286.83 192.111 1287.14 192.806C1287.48 193.531 1287.83 194.256 1288.14 195.012C1288.45 195.738 1288.77 196.493 1289.08 197.249C1289.27 197.646 1289.42 198.064 1289.59 198.492C1289.87 199.158 1290.13 199.824 1290.38 200.521L1290.38 200.551C1290.41 200.67 1290.47 200.759 1290.5 200.879C1290.63 201.177 1290.72 201.486 1290.82 201.785C1291.39 203.327 1291.89 204.87 1292.34 206.453C1292.5 206.941 1292.66 207.419 1292.76 207.907C1293.05 208.844 1293.31 209.79 1293.53 210.727C1293.85 211.972 1294.15 213.208 1294.38 214.455C1294.57 215.182 1294.7 215.941 1294.84 216.699C1295.27 218.943 1295.6 221.218 1295.88 223.495C1295.98 224.343 1296.05 225.162 1296.12 225.981C1296.19 226.62 1296.23 227.23 1296.27 227.84C1296.34 228.659 1296.38 229.448 1296.42 230.268C1296.47 231.397 1296.51 232.516 1296.53 233.646C1296.55 234.676 1296.53 235.687 1296.51 236.687C1296.53 237.627 1296.48 238.548 1296.43 239.458C1296.44 239.668 1296.41 239.889 1296.41 240.099C1296.39 240.499 1296.36 240.889 1296.34 241.32C1296.32 241.81 1296.29 242.291 1296.24 242.781C1296.16 243.753 1296.09 244.734 1295.98 245.735C1295.93 246.196 1295.88 246.647 1295.82 247.138C1295.82 247.228 1295.8 247.348 1295.8 247.468C1295.77 247.499 1295.77 247.559 1295.77 247.589C1295.77 247.649 1295.74 247.739 1295.74 247.799C1295.69 248.32 1295.61 248.831 1295.52 249.352C1295.41 250.084 1295.31 250.816 1295.19 251.517C1295.08 252.249 1294.94 252.981 1294.79 253.713C1294.7 254.234 1294.59 254.746 1294.48 255.238C1294.34 255.94 1294.2 256.672 1294.02 257.375C1293.82 258.228 1293.61 259.081 1293.38 259.904C1293.16 260.817 1292.92 261.741 1292.66 262.624C1292.35 263.689 1292.02 264.764 1291.68 265.799C1291.54 266.291 1291.36 266.773 1291.21 267.266C1291.21 267.296 1291.18 267.326 1291.18 267.356C1291.04 267.758 1290.92 268.15 1290.74 268.553C1290.32 269.689 1289.92 270.814 1289.48 271.921C1289.03 273.027 1288.6 274.094 1288.12 275.161C1287.86 275.774 1287.59 276.388 1287.3 276.972C1286.98 277.707 1286.62 278.442 1286.26 279.177C1285.91 279.883 1285.55 280.588 1285.13 281.294C1284.84 281.878 1284.57 282.462 1284.21 283.007C1284.21 283.037 1284.18 283.037 1284.18 283.067C1283.74 283.894 1283.27 284.721 1282.79 285.518C1282.4 286.223 1281.99 286.869 1281.54 287.546C1281.42 287.757 1281.27 288.009 1281.12 288.222C1280.64 289.019 1280.11 289.816 1279.57 290.614C1278.94 291.533 1278.29 292.493 1277.63 293.382C1277.45 293.625 1277.31 293.847 1277.12 294.089C1276.32 295.201 1275.48 296.303 1274.61 297.386C1273.62 298.62 1272.6 299.814 1271.53 301.02C1271.47 301.111 1271.38 301.202 1271.29 301.293C1270.84 301.82 1270.4 302.306 1269.91 302.833C1269.37 303.421 1268.84 303.978 1268.27 304.527C1267.73 305.114 1267.15 305.673 1266.59 306.221L1266.59 306.251C1266.08 306.748 1265.61 307.205 1265.09 307.672C1265 307.734 1264.95 307.824 1264.86 307.886C1263.68 309.033 1262.49 310.08 1261.28 311.097C1260.83 311.503 1260.35 311.87 1259.87 312.247C1259.26 312.746 1258.66 313.235 1258.06 313.703C1257.82 313.887 1257.6 314.04 1257.37 314.233C1256.79 314.671 1256.22 315.1 1255.62 315.538C1255.3 315.783 1254.99 316.037 1254.66 316.252C1254.34 316.497 1254 316.721 1253.67 316.936C1253.22 317.273 1252.77 317.589 1252.32 317.866C1251.45 318.488 1250.57 319.05 1249.66 319.604C1249 320.043 1248.27 320.473 1247.58 320.853C1247.46 320.945 1247.37 321.006 1247.25 321.068C1247.22 321.069 1247.22 321.099 1247.19 321.099C1246.65 321.467 1246.07 321.755 1245.51 322.063C1244.81 322.503 1244.12 322.873 1243.42 323.253C1242.7 323.633 1241.97 324.004 1241.25 324.354C1240.67 324.662 1240.07 324.951 1239.47 325.229C1238.41 325.735 1237.35 326.2 1236.27 326.675C1235.25 327.12 1234.15 327.556 1233.1 327.971C1233.04 328.001 1233.01 328.002 1232.95 328.033C1232.04 328.376 1231.17 328.728 1230.22 329.042C1229.2 329.426 1228.13 329.772 1227.08 330.117C1226.2 330.399 1225.29 330.662 1224.38 330.915C1223.56 331.167 1222.72 331.399 1221.86 331.621C1221.8 331.622 1221.77 331.653 1221.71 331.653C1221.07 331.843 1220.38 331.973 1219.74 332.142C1219.25 332.269 1218.74 332.396 1218.22 332.493C1216.8 332.814 1215.34 333.114 1213.88 333.345C1213.37 333.443 1212.86 333.54 1212.34 333.607C1212.28 333.608 1212.19 333.639 1212.13 333.64C1212.1 333.641 1212.04 333.642 1212.01 333.672C1211.89 333.674 1211.77 333.705 1211.68 333.707C1211.22 333.773 1210.74 333.84 1210.28 333.907C1209.28 334.041 1208.3 334.145 1207.34 334.249C1206.25 334.384 1205.12 334.46 1204.02 334.536C1203.11 334.609 1202.19 334.682 1201.25 334.696C1200.25 334.74 1199.24 334.784 1198.21 334.799C1197.08 334.815 1195.96 334.801 1194.83 334.787C1194.01 334.769 1193.22 334.75 1192.4 334.702C1191.79 334.68 1191.18 334.659 1190.54 334.608C1189.72 334.56 1188.9 334.512 1188.05 334.434C1185.76 334.226 1183.48 333.949 1181.21 333.591C1180.45 333.482 1179.69 333.373 1178.96 333.193C1177.71 333.001 1176.46 332.739 1175.21 332.457C1174.26 332.26 1173.31 332.024 1172.37 331.767C1171.88 331.684 1171.39 331.541 1170.9 331.388C1169.32 330.981 1167.76 330.523 1166.19 329.995C1165.89 329.909 1165.58 329.824 1165.28 329.708C1165.16 329.68 1165.07 329.621 1164.95 329.593L1164.92 329.593C1164.8 329.565 1164.67 329.507 1164.54 329.479C1164.3 329.392 1164.08 329.305 1163.87 329.218C1163.54 329.103 1163.2 328.988 1162.86 328.872C1162.43 328.729 1162.01 328.585 1161.61 328.4C1160.84 328.111 1160.08 327.812 1159.35 327.523C1158.58 327.233 1157.85 326.904 1157.11 326.584C1156.41 326.294 1155.73 325.994 1155.06 325.673C1155 325.644 1154.94 325.615 1154.88 325.586C1153.8 325.081 1152.73 324.547 1151.69 324.021C1151.66 323.992 1151.6 323.993 1151.57 323.963C1151.24 323.788 1150.9 323.643 1150.57 323.427C1149.86 323.107 1149.13 322.718 1148.45 322.297L1148.42 322.298C1147.71 321.908 1147.04 321.497 1146.36 321.077C1145.66 320.687 1144.98 320.277 1144.3 319.826C1143.63 319.436 1142.95 318.995 1142.28 318.545C1141.6 318.125 1140.95 317.684 1140.28 317.203C1138.95 316.312 1137.63 315.351 1136.38 314.369C1135.73 313.918 1135.11 313.417 1134.49 312.905C1133.23 311.923 1132.04 310.9 1130.83 309.827C1130.24 309.316 1129.62 308.775 1129.05 308.213C1128.46 307.671 1127.87 307.129 1127.32 306.567L1127.32 306.537C1126.21 305.483 1125.19 304.437 1124.18 303.362L1123.96 303.155C1123.04 302.138 1122.11 301.111 1121.18 300.034C1120.53 299.283 1119.88 298.502 1119.26 297.721C1118.73 297.089 1118.24 296.456 1117.77 295.822C1117.3 295.279 1116.87 294.645 1116.43 294.081C1116.43 294.051 1116.4 294.052 1116.4 294.022C1116.13 293.695 1115.87 293.329 1115.63 292.963C1115.07 292.18 1114.51 291.398 1114.01 290.615C1113.86 290.407 1113.71 290.16 1113.57 289.952C1113.11 289.288 1112.71 288.654 1112.27 287.96C1111.77 287.177 1111.27 286.364 1110.8 285.551C1110.8 285.521 1110.77 285.521 1110.77 285.491C1110.4 284.946 1110.11 284.37 1109.81 283.805C1109.37 283.111 1109 282.416 1108.62 281.721C1108.25 280.997 1107.87 280.272 1107.52 279.547C1107.21 278.971 1106.92 278.365 1106.64 277.759C1106.58 277.64 1106.52 277.491 1106.45 277.362L1106.45 277.332C1106.07 276.607 1105.73 275.882 1105.45 275.126C1105.3 274.828 1105.17 274.52 1105.04 274.222L1105.04 274.192C1104.85 273.764 1104.66 273.347 1104.5 272.919C1104.41 272.681 1104.31 272.402 1104.22 272.163C1103.94 271.467 1103.65 270.801 1103.4 270.105C1103.18 269.528 1102.95 268.951 1102.77 268.353C1102.48 267.597 1102.22 266.841 1101.97 266.055C1101.88 265.726 1101.78 265.417 1101.69 265.089C1101.41 264.302 1101.18 263.486 1100.95 262.669C1100.7 261.852 1100.47 261.005 1100.25 260.159C1100.06 259.461 1099.9 258.733 1099.73 258.036C1099.67 257.857 1099.63 257.677 1099.6 257.488C1099.57 257.398 1099.57 257.338 1099.54 257.248C1099.47 257.009 1099.41 256.76 1099.38 256.521C1099.22 255.973 1099.12 255.434 1099.02 254.885C1099.02 254.825 1098.99 254.736 1098.99 254.676C1098.96 254.586 1098.96 254.466 1098.93 254.377C1098.7 253.13 1098.46 251.893 1098.26 250.646C1098.26 250.586 1098.23 250.496 1098.23 250.436C1098.23 250.406 1098.23 250.346 1098.2 250.317C1098.2 250.197 1098.16 250.077 1098.16 249.987C1098.1 249.528 1098.03 249.049 1097.96 248.59C1097.86 247.951 1097.8 247.312 1097.73 246.673C1097.62 245.855 1097.55 245.005 1097.48 244.186C1097.37 243.058 1097.3 241.939 1097.22 240.78C1097.18 240.23 1097.18 239.65 1097.14 239.081C1097.1 238.231 1097.08 237.381 1097.07 236.521C1096.95 227.942 1097.93 219.597 1099.85 211.589C1100.24 209.994 1100.67 208.407 1101.14 206.84Z" fill="#868686"/>
<path d="M516.328 365.4C509.075 365.4 503.178 359.326 503.178 351.868C503.178 348.302 504.545 344.903 507.024 342.312C509.483 339.784 512.87 338.336 516.328 338.336C519.838 338.336 523.143 339.742 525.633 342.302C528.122 344.903 529.489 348.291 529.489 351.868C529.489 355.477 528.122 358.875 525.633 361.424C523.184 363.994 519.879 365.4 516.328 365.4Z" fill="#868686"/>
<path d="M479.581 365.4C472.327 365.4 466.431 359.326 466.431 351.868C466.431 348.302 467.798 344.903 470.277 342.312C472.736 339.784 476.123 338.336 479.581 338.336C483.09 338.336 486.396 339.742 488.885 342.302C491.375 344.903 492.742 348.291 492.742 351.858C492.742 355.466 491.375 358.865 488.885 361.424C486.437 363.994 483.131 365.4 479.581 365.4Z" fill="#868686"/>
<path d="M753.471 61H731.109V314.535H753.471V61Z" fill="#868686"/>
<path d="M593.934 315.259V292.266H621.755C646.515 292.266 666.664 271.559 666.664 246.101V130.714H689.026V246.101C689.026 284.241 658.849 315.259 621.755 315.259H593.934Z" fill="#868686"/>
<path d="M439.712 61.493V84.5179H67.3224C46.786 84.5179 28.8612 98.7629 23.8113 119.228H0.958984L1.0814 118.536C6.77406 85.5039 34.6457 61.5035 67.3224 61.5035H439.712V61.493Z" fill="#868686"/>
<path d="M439.712 246.08C439.712 247.412 439.681 248.776 439.59 250.066C439.559 250.989 439.498 251.87 439.406 252.762C439.375 252.982 439.375 253.202 439.345 253.423C439.222 254.503 439.1 255.541 438.947 256.59C438.763 257.954 438.518 259.318 438.202 260.671C438.019 261.563 437.804 262.444 437.59 263.335C437.315 264.447 437.009 265.517 436.692 266.629V266.661C434.693 273.122 431.826 279.196 428.225 284.713C427.643 285.636 426.99 286.549 426.348 287.441V287.472C414.034 304.287 394.477 315.207 372.481 315.207C372.481 315.207 372.298 315.207 372.084 315.238C371.961 315.27 371.869 315.238 371.747 315.238C371.472 315.27 371.227 315.27 371.227 315.27H0V292.276H372.584C396.262 292.276 415.982 273.248 417.421 248.922C417.482 247.999 417.513 247.024 417.513 246.069C417.513 244.831 417.451 243.604 417.36 242.335C415.513 218.555 395.834 199.904 372.584 199.904H67.3224C34.6457 199.904 6.80466 175.935 1.0814 142.903L0.958981 142.211H23.8113C28.8918 162.634 46.8166 176.921 67.3224 176.921H372.573C373.685 176.921 374.787 176.953 375.899 177.016C376.919 177.047 377.899 177.142 378.888 177.236C379.194 177.268 379.5 177.299 379.786 177.33C380.582 177.425 381.357 177.519 382.122 177.645C382.214 177.645 382.337 177.677 382.428 177.677C382.765 177.74 383.102 177.771 383.449 177.834C383.54 177.865 383.602 177.865 383.693 177.897C383.724 177.865 383.724 177.897 383.755 177.897L384.275 177.96H384.581L384.673 178.054L385.132 178.149C385.652 178.243 386.152 178.337 386.642 178.463C387.539 178.652 388.397 178.841 389.264 179.093C389.845 179.25 390.467 179.407 391.08 179.596C391.263 179.628 391.416 179.691 391.6 179.754C393.691 180.383 395.721 181.149 397.731 181.967C398.466 182.282 399.21 182.596 399.945 182.953C400.527 183.205 401.088 183.488 401.669 183.771C402.312 184.086 402.965 184.4 403.577 184.757C404.22 185.103 404.842 185.449 405.454 185.806C406.066 186.152 406.688 186.53 407.301 186.918C425.746 198.289 437.794 217.884 439.579 240.185L439.641 243.164L439.712 246.08Z" fill="#868686"/>
<path d="M551.841 130.714V246.069C551.841 284.231 521.694 315.259 484.58 315.259C469.981 315.259 455.841 310.381 444.231 301.392C448.73 295.182 452.515 288.406 455.413 281.157C463.482 288.28 473.888 292.276 484.58 292.276C509.34 292.276 529.478 271.57 529.478 246.08V130.714H551.841Z" fill="#868686"/>
<path d="M795.564 315.259V292.486H819.804C857.072 292.486 887.402 261.311 887.402 222.992C887.402 184.673 857.082 153.498 819.804 153.498H795.564V130.714H819.804C869.283 130.714 909.54 172.107 909.54 222.981C909.54 273.856 869.283 315.259 819.804 315.259H795.564Z" fill="#868686"/>
<path d="M54.5474 435.591C50.7714 443.463 48.8834 450.599 48.8834 456.999C48.8834 462.951 50.3874 467.815 53.3954 471.591C56.4674 475.431 61.0114 477.351 67.0274 477.351H77.2994C81.7154 477.351 85.2034 476.807 87.7634 475.719C90.3234 474.631 92.1474 472.935 93.2354 470.631C94.3874 468.327 94.9634 465.255 94.9634 461.415V430.791H100.915V461.415C100.915 476.519 93.0434 484.071 77.2994 484.071H67.0274C61.9074 484.071 57.5234 482.791 53.8754 480.231C50.2274 477.735 47.4754 474.407 45.6194 470.247C43.8274 466.151 42.9314 461.735 42.9314 456.999C42.9314 449.511 45.1074 441.479 49.4594 432.903L54.5474 435.591ZM70.0994 430.503H78.6434V439.047H70.0994V430.503ZM129.556 459.879C123.732 459.879 119.604 458.343 117.172 455.271C114.74 452.199 113.524 447.623 113.524 441.543L113.428 397.575H119.38L119.476 441.543C119.476 444.743 119.732 447.143 120.244 448.743C120.82 450.343 121.812 451.495 123.22 452.199C124.628 452.839 126.74 453.159 129.556 453.159H130.804L131.284 456.615L130.804 459.879H129.556ZM175.696 402.951L145.264 416.391L162.256 433.287C165.584 436.615 167.248 440.551 167.248 445.095C167.248 447.719 166.608 450.151 165.328 452.391C164.048 454.631 162.192 456.455 159.76 457.863C157.328 459.207 154.448 459.879 151.12 459.879H129.808V453.159H151.12C154.448 453.159 157.04 452.455 158.896 451.047C160.752 449.575 161.68 447.751 161.68 445.575C161.68 442.951 160.464 440.423 158.032 437.991L138.832 418.983L140.656 411.111L173.2 396.807L175.696 402.951ZM141.808 400.647L168.304 389.031L169.648 392.391L141.328 404.775L141.808 400.647ZM208.754 427.143L212.786 435.975C212.786 435.975 212.786 436.007 212.786 436.071C212.85 436.071 212.882 436.071 212.882 436.071C215.634 442.343 218.066 446.759 220.178 449.319C222.354 451.879 224.914 453.159 227.858 453.159H229.394L229.874 456.711L229.394 459.879H227.858C225.106 459.879 222.642 459.175 220.466 457.767C218.29 456.359 216.242 454.311 214.322 451.623L213.458 453.063C210.322 457.607 205.266 459.879 198.29 459.879H193.394C189.938 459.879 186.866 459.367 184.178 458.343C181.554 457.319 179.378 456.135 177.65 454.791L180.914 449.223C184.626 451.847 188.786 453.159 193.394 453.159H198.29C203.282 453.159 206.706 451.847 208.562 449.223C209.266 448.263 209.618 447.143 209.618 445.863C209.618 444.327 208.882 441.991 207.41 438.855C200.882 424.711 197.49 417.351 197.234 416.775L202.706 413.895L208.754 427.143ZM253.105 430.791V445.095C253.105 450.471 256.017 453.159 261.841 453.159H264.913L265.393 456.615L264.913 459.879H261.841C259.793 459.879 257.649 459.367 255.409 458.343C253.169 457.319 251.313 455.751 249.841 453.639C248.433 455.687 246.545 457.255 244.177 458.343C241.809 459.367 239.249 459.879 236.497 459.879H228.433V453.159H236.497C243.601 453.159 247.153 450.215 247.153 444.327V430.791H253.105ZM236.497 411.783H245.041V420.327H236.497V411.783ZM288.636 430.791V445.095C288.636 450.471 291.548 453.159 297.372 453.159H300.444L300.924 456.615L300.444 459.879H297.372C295.324 459.879 293.18 459.367 290.94 458.343C288.7 457.319 286.844 455.751 285.372 453.639C283.964 455.687 282.076 457.255 279.708 458.343C277.34 459.367 274.78 459.879 272.028 459.879H263.964V453.159H272.028C279.132 453.159 282.684 450.215 282.684 444.327V430.791H288.636ZM272.028 411.783H280.572V420.327H272.028V411.783ZM344.999 400.167L312.839 414.279L331.943 433.287C333.607 434.951 334.855 436.807 335.687 438.855C336.519 440.839 336.935 442.887 336.935 444.999C336.935 447.623 336.295 450.087 335.015 452.391C333.735 454.631 331.879 456.455 329.447 457.863C327.015 459.207 324.135 459.879 320.807 459.879H299.495V453.159H320.807C324.135 453.159 326.727 452.455 328.583 451.047C330.439 449.575 331.367 447.751 331.367 445.575C331.367 442.951 330.151 440.423 327.719 437.991L306.503 416.871L308.327 408.999L342.503 394.023L344.999 400.167ZM439.846 459.879C436.262 459.879 433.254 458.759 430.822 456.519V461.415C430.822 476.519 422.95 484.071 407.206 484.071H396.934C391.814 484.071 387.43 482.791 383.782 480.231C380.134 477.735 377.382 474.407 375.526 470.247C373.734 466.151 372.838 461.735 372.838 456.999C372.838 449.511 375.014 441.479 379.366 432.903L384.454 435.591C380.678 443.463 378.79 450.599 378.79 456.999C378.79 462.951 380.294 467.815 383.302 471.591C386.374 475.431 390.918 477.351 396.934 477.351H407.206C411.622 477.351 415.11 476.807 417.67 475.719C420.23 474.631 422.054 472.935 423.142 470.631C424.294 468.327 424.87 465.255 424.87 461.415V430.791H430.822V444.519C430.822 447.783 431.686 450.055 433.414 451.335C435.206 452.551 437.35 453.159 439.846 453.159H441.19L441.67 456.615L441.19 459.879H439.846ZM400.006 430.503H408.55V439.047H400.006V430.503ZM466.806 430.791V445.095C466.806 450.471 469.718 453.159 475.542 453.159H480.438L480.822 456.615L480.438 459.879H475.542C473.558 459.879 471.414 459.367 469.11 458.343C466.87 457.319 465.014 455.783 463.542 453.735C462.134 455.783 460.246 457.319 457.878 458.343C455.51 459.367 452.982 459.879 450.294 459.879H440.214V453.159H450.294C457.334 453.159 460.854 450.215 460.854 444.327V430.791H466.806ZM442.806 473.703H451.35V482.247H442.806V473.703ZM458.742 473.703H467.286V482.247H458.742V473.703ZM479.495 453.159H482.183C483.783 453.159 485.127 452.743 486.215 451.911C487.367 451.079 488.135 449.927 488.519 448.455L491.591 437.415C492.935 432.615 495.015 428.871 497.831 426.183C500.647 423.431 504.039 422.055 508.007 422.055C511.207 422.055 514.023 422.983 516.455 424.839C518.887 426.695 520.775 429.191 522.119 432.327C523.463 435.463 524.135 438.887 524.135 442.599C524.135 447.079 523.495 450.791 522.215 453.735C520.935 456.615 519.303 458.695 517.319 459.975C515.335 461.319 513.191 461.991 510.887 461.991C508.519 461.991 506.087 461.511 503.591 460.551C501.159 459.591 497.255 457.735 491.879 454.983C490.663 456.519 489.191 457.735 487.463 458.631C485.799 459.463 484.039 459.879 482.183 459.879H479.495V453.159ZM494.567 449.031C499.623 451.591 503.143 453.287 505.127 454.119C507.111 454.887 509.031 455.271 510.887 455.271C513.191 455.271 514.983 454.375 516.263 452.583C517.543 450.727 518.183 447.399 518.183 442.599C518.183 438.375 517.287 435.015 515.495 432.519C513.767 430.023 511.271 428.775 508.007 428.775C505.447 428.775 503.271 429.639 501.479 431.367C499.687 433.095 498.311 435.687 497.351 439.143L494.567 449.031ZM553.681 459.879C547.857 459.879 543.729 458.343 541.297 455.271C538.865 452.199 537.649 447.623 537.649 441.543L537.553 397.575H543.505L543.601 441.543C543.601 444.743 543.857 447.143 544.369 448.743C544.945 450.343 545.937 451.495 547.345 452.199C548.753 452.839 550.865 453.159 553.681 453.159H554.929L555.409 456.615L554.929 459.879H553.681ZM553.933 453.159H566.893C570.605 453.159 573.229 452.455 574.765 451.047C576.365 449.575 577.165 447.687 577.165 445.383C577.165 443.591 576.845 440.935 576.205 437.415C575.629 433.831 574.957 430.471 574.189 427.335L579.949 425.799C580.717 429.127 581.421 432.679 582.061 436.455C582.765 440.231 583.117 443.207 583.117 445.383C583.117 447.815 582.541 450.151 581.389 452.391C580.237 454.567 578.445 456.359 576.013 457.767C573.581 459.175 570.541 459.879 566.893 459.879H553.933V453.159ZM558.637 405.639H567.181V414.183H558.637V405.639ZM574.573 405.639H583.117V414.183H574.573V405.639ZM652.585 442.023C653.609 446.055 655.497 448.935 658.249 450.663C661.065 452.327 664.329 453.159 668.041 453.159H669.961L670.345 456.519L669.961 459.879H668.041C663.945 459.879 660.009 458.887 656.233 456.903C652.457 454.855 649.641 451.527 647.785 446.919L647.497 447.495C645.961 450.247 643.945 452.359 641.449 453.831C638.953 455.303 636.265 456.039 633.385 456.039C630.441 456.039 627.593 455.239 624.841 453.639C622.281 452.167 620.265 450.119 618.793 447.495C617.321 444.807 616.585 441.991 616.585 439.047C616.585 435.975 617.353 433.159 618.889 430.599C619.849 428.935 620.969 427.495 622.249 426.279C623.593 425.063 625.641 423.751 628.393 422.343C631.145 420.871 635.145 419.047 640.393 416.871L639.145 411.303L644.905 409.767L652.585 442.023ZM624.073 434.055C623.049 435.719 622.537 437.479 622.537 439.335C622.537 441.063 622.985 442.695 623.881 444.231C624.841 445.767 626.121 447.015 627.721 447.975C629.321 448.999 631.113 449.511 633.097 449.511C634.953 449.511 636.713 449.095 638.377 448.263C640.105 447.367 641.545 446.119 642.697 444.519C643.401 443.495 643.913 442.471 644.233 441.447C644.617 440.423 644.809 439.207 644.809 437.799C644.809 436.775 644.713 435.591 644.521 434.247L642.697 426.375L641.929 423.207C636.041 425.319 631.849 427.207 629.353 428.871C626.857 430.535 625.097 432.263 624.073 434.055ZM668.964 453.159H679.332C682.532 453.159 684.836 452.455 686.244 451.047C687.716 449.575 688.452 447.687 688.452 445.383C688.452 443.591 688.132 440.935 687.492 437.415C686.916 433.831 686.244 430.471 685.476 427.335L691.236 425.799C692.004 429.127 692.708 432.679 693.348 436.455C694.052 440.231 694.404 443.207 694.404 445.383C694.404 447.815 693.86 450.151 692.772 452.391C691.684 454.567 689.988 456.359 687.684 457.767C685.444 459.175 682.66 459.879 679.332 459.879H668.964V453.159ZM680.004 405.543H688.548V414.087H680.004V405.543ZM724.024 459.879C718.2 459.879 714.072 458.343 711.64 455.271C709.208 452.199 707.992 447.623 707.992 441.543L707.896 397.575H713.848L713.944 441.543C713.944 444.743 714.2 447.143 714.712 448.743C715.288 450.343 716.28 451.495 717.688 452.199C719.096 452.839 721.208 453.159 724.024 453.159H725.272L725.752 456.615L725.272 459.879H724.024ZM724.276 453.159H726.964C728.564 453.159 729.908 452.743 730.996 451.911C732.148 451.079 732.916 449.927 733.3 448.455L736.372 437.415C737.716 432.615 739.796 428.871 742.612 426.183C745.428 423.431 748.82 422.055 752.788 422.055C755.988 422.055 758.804 422.983 761.236 424.839C763.668 426.695 765.556 429.191 766.9 432.327C768.244 435.463 768.916 438.887 768.916 442.599C768.916 447.079 768.276 450.791 766.996 453.735C765.716 456.615 764.084 458.695 762.1 459.975C760.116 461.319 757.972 461.991 755.668 461.991C753.3 461.991 750.868 461.511 748.372 460.551C745.94 459.591 742.036 457.735 736.66 454.983C735.444 456.519 733.972 457.735 732.244 458.631C730.58 459.463 728.82 459.879 726.964 459.879H724.276V453.159ZM739.348 449.031C744.404 451.591 747.924 453.287 749.908 454.119C751.892 454.887 753.812 455.271 755.668 455.271C757.972 455.271 759.764 454.375 761.044 452.583C762.324 450.727 762.964 447.399 762.964 442.599C762.964 438.375 762.068 435.015 760.276 432.519C758.548 430.023 756.052 428.775 752.788 428.775C750.228 428.775 748.052 429.639 746.26 431.367C744.468 433.095 743.092 435.687 742.132 439.143L739.348 449.031ZM798.462 459.879C792.638 459.879 788.51 458.343 786.078 455.271C783.646 452.199 782.43 447.623 782.43 441.543L782.334 397.575H788.286L788.382 441.543C788.382 444.743 788.638 447.143 789.15 448.743C789.726 450.343 790.718 451.495 792.126 452.199C793.534 452.839 795.646 453.159 798.462 453.159H799.71L800.19 456.615L799.71 459.879H798.462ZM798.714 453.159H804.858C808.25 453.159 810.746 452.455 812.346 451.047C813.946 449.639 814.746 447.399 814.746 444.327V430.599H820.698V445.095C820.698 450.343 823.514 453.031 829.146 453.159C832.474 453.095 834.906 452.391 836.442 451.047C837.978 449.639 838.746 447.399 838.746 444.327V430.599H844.698V445.095C844.698 450.343 847.546 453.031 853.242 453.159C856.314 453.095 858.522 452.359 859.866 450.951C861.274 449.479 861.978 447.623 861.978 445.383C861.978 443.591 861.658 440.935 861.018 437.415C860.442 433.831 859.77 430.471 859.002 427.335L864.858 425.799C865.626 428.999 866.33 432.519 866.97 436.359C867.61 440.199 867.93 443.207 867.93 445.383C867.93 447.751 867.386 450.055 866.298 452.295C865.274 454.535 863.642 456.359 861.402 457.767C859.226 459.175 856.506 459.879 853.242 459.879C851.194 459.879 849.082 459.367 846.906 458.343C844.73 457.319 842.938 455.751 841.53 453.639C838.65 457.799 834.522 459.879 829.146 459.879C827.098 459.879 824.954 459.335 822.714 458.247C820.474 457.159 818.714 455.623 817.434 453.639C816.026 455.687 814.234 457.255 812.058 458.343C809.882 459.367 807.482 459.879 804.858 459.879H798.714V453.159Z" fill="#868686"/>
</svg>
